<svg xmlns="http://www.w3.org/2000/svg" width="200.96926879882812" height="213.97219848632812" viewBox="24.318199157714844 -22.149019241333008 200.96926879882812 213.97219848632812"><title>Neo4j Graph Visualization</title><desc>Created using Neo4j (http://www.neo4j.com/)</desc><g class="layer relationships"><g class="relationship" transform="translate(134.09017338105306 162.82318472970792) rotate(283.42441829717217)"><path class="outline" fill="#A5ABB6" stroke="none" d="M 5.987513214418485,-24.277555179777966 L 6.953439040707552,-24.018736134675446 A 45.89014220988936 45.89014220988936 0 0 1 27.158963661639948,-51.18102428353987 L 26.633339905641222,-52.03174143226194 A 46.89014220988936 46.89014220988936 0 0 0 5.987513214418485,-24.277555179777966 Z M 70.76490323711639,-54.791470784340135 L 70.34935767155636,-53.88189842166446 A 45.89014220988936 45.89014220988936 0 0 1 93.78137751146063,-29.448446579745394 L 91.00290726329149,-28.317030175392475 L 96.88442749631231,-23.153918734742877 L 97.4860045090195,-30.957001785549288 L 94.70753426085035,-29.82558538119637 A 46.89014220988936 46.89014220988936 0 0 0 70.76490323711639,-54.791470784340135"/><text text-anchor="middle" pointer-events="none" font-size="8px" fill="#000000" x="48.38460049612838" y="-55.441195963206624" font-family="sans-serif">CONNECT</text></g><g class="relationship" transform="translate(158.7720371755066 59.415071985076935) rotate(187.3016747134826)"><path class="outline" fill="#A5ABB6" stroke="none" d="M 5.987513214418485,24.277555179777966 L 6.953439040707552,24.018736134675446 A 45.89179596503352 45.89179596503352 0 0 0 27.160444547327756,51.18246821189613 L 26.63483719369155,52.033195494756825 A 46.89179596503352 46.89179596503352 0 0 1 5.987513214418485,24.277555179777966 Z M 70.76651715242363,54.79285337943943 L 70.35098589000768,53.88327448239146 A 45.89179596503352 45.89179596503352 0 0 0 93.78456808855535,29.448491134640644 L 91.00609381771936,28.317084608982206 L 96.88759569356436,23.15395225696644 L 97.48920044966998,30.957033168851893 L 94.710726178834,29.825626643193456 A 46.89179596503352 46.89179596503352 0 0 1 70.76651715242363,54.79285337943943"/><text text-anchor="middle" pointer-events="none" font-size="8px" fill="#000000" x="48.38617699726306" y="61.44242361812225" transform="rotate(180 48.38617699726306 58.44242361812225)" font-family="sans-serif">CONNECT</text></g><g class="relationship" transform="translate(158.7720371755066 59.415071985076935) rotate(463.42441829717217)"><path class="outline" fill="#A5ABB6" stroke="none" d="M 17.324116139070416,18.03122292025696 L 18.031222920256962,17.324116139070412 A 47.02074783849259 47.02074783849259 0 0 0 27.762509293819008,24.79252940702459 L 27.26235979895609,25.658468482703917 A 48.02074783849259 48.02074783849259 0 0 1 17.324116139070416,18.03122292025696 Z M 71.51008056895782,27.626919294365457 L 71.08880083246392,26.71998854528941 A 47.02074783849259 47.02074783849259 0 0 0 81.44482787376721,20.145200704984386 L 79.52025733711432,17.843890589105264 L 87.13531323359398,16.03808780544081 L 84.01092192263775,23.213614192823215 L 82.08635138598486,20.912304076944093 A 48.02074783849259 48.02074783849259 0 0 1 71.51008056895782,27.626919294365457"/><text text-anchor="middle" pointer-events="none" font-size="8px" fill="#000000" x="49.167943288862844" y="34.54921989743942" transform="rotate(180 49.167943288862844 31.54921989743942)" font-family="sans-serif">CONNECT</text></g><g class="relationship" transform="translate(158.7720371755066 59.415071985076935) rotate(463.42441829717217)"><path class="outline" fill="#A5ABB6" stroke="none" d="M 24.018736134675446,6.953439040707552 L 24.277555179777966,5.987513214418485 A 104.32909750843066 104.32909750843066 0 0 0 27.159944900788176,6.715992460071462 L 26.9287537158881,7.688900799034855 A 105.32909750843066 105.32909750843066 0 0 1 24.018736134675446,6.953439040707552 Z M 72.33558699448226,8.416431419470555 L 72.13568331241113,7.4366158664737725 A 104.32909750843066 104.32909750843066 0 0 0 75.03993159196862,6.800852981571161 L 74.35670841877676,3.8796877867193453 L 81.96985424215484,5.693526443265467 L 75.9508958228911,10.695739908040249 L 75.26767264969924,7.774574713188434 A 105.32909750843066 105.32909750843066 0 0 1 72.33558699448226,8.416431419470555"/><text text-anchor="middle" pointer-events="none" font-size="8px" fill="#000000" x="49.600504758092136" y="13.028987720307228" transform="rotate(180 49.600504758092136 10.028987720307228)" font-family="sans-serif">CONNECT</text></g><g class="relationship" transform="translate(158.7720371755066 59.415071985076935) rotate(463.42441829717217)"><path class="outline" fill="#A5ABB6" stroke="none" d="M 24.018736134675446,-6.953439040707552 L 24.277555179777966,-5.987513214418485 A 104.32909750843066 104.32909750843066 0 0 1 27.159944900788176,-6.715992460071462 L 26.9287537158881,-7.688900799034855 A 105.32909750843066 105.32909750843066 0 0 0 24.018736134675446,-6.953439040707552 Z M 72.33558699448224,-8.416431419470555 L 72.13568331241112,-7.4366158664737725 A 104.32909750843066 104.32909750843066 0 0 1 75.03993159196862,-6.800852981571161 L 74.35670841877676,-3.8796877867193453 L 81.96985424215484,-5.693526443265467 L 75.9508958228911,-10.695739908040249 L 75.26767264969924,-7.774574713188434 A 105.32909750843066 105.32909750843066 0 0 0 72.33558699448224,-8.416431419470555"/><text text-anchor="middle" pointer-events="none" font-size="8px" fill="#000000" x="49.60050475809213" y="-7.028987720307228" transform="rotate(180 49.60050475809213 -10.028987720307228)" font-family="sans-serif">CONNECT</text></g><g class="relationship" transform="translate(134.09017338105306 162.82318472970792) rotate(283.42441829717217)"><path class="outline" fill="#A5ABB6" stroke="none" d="M 17.324116139070416,18.03122292025696 L 18.031222920256962,17.324116139070412 A 47.02074783849259 47.02074783849259 0 0 0 27.762509293819008,24.79252940702459 L 27.26235979895609,25.658468482703917 A 48.02074783849259 48.02074783849259 0 0 1 17.324116139070416,18.03122292025696 Z M 71.51008056895782,27.626919294365457 L 71.08880083246392,26.71998854528941 A 47.02074783849259 47.02074783849259 0 0 0 81.44482787376721,20.145200704984386 L 79.52025733711432,17.843890589105264 L 87.13531323359398,16.03808780544081 L 84.01092192263775,23.213614192823215 L 82.08635138598486,20.912304076944093 A 48.02074783849259 48.02074783849259 0 0 1 71.51008056895782,27.626919294365457"/><text text-anchor="middle" pointer-events="none" font-size="8px" fill="#000000" x="49.167943288862844" y="34.54921989743942" font-family="sans-serif">CONNECT</text></g><g class="relationship" transform="translate(134.09017338105306 162.82318472970792) rotate(283.42441829717217)"><path class="outline" fill="#A5ABB6" stroke="none" d="M 5.987513214418485,24.277555179777966 L 6.953439040707552,24.018736134675446 A 45.89014220988936 45.89014220988936 0 0 0 27.158963661639966,51.181024283539884 L 26.633339905641236,52.03174143226194 A 46.89014220988936 46.89014220988936 0 0 1 5.987513214418485,24.277555179777966 Z M 70.76490323711639,54.79147078434012 L 70.34935767155636,53.88189842166446 A 45.89014220988936 45.89014220988936 0 0 0 93.78137751146063,29.448446579745394 L 91.00290726329149,28.317030175392475 L 96.88442749631231,23.153918734742877 L 97.4860045090195,30.957001785549288 L 94.70753426085035,29.82558538119637 A 46.89014220988936 46.89014220988936 0 0 1 70.76490323711639,54.79147078434012"/><text text-anchor="middle" pointer-events="none" font-size="8px" fill="#000000" x="48.38460049612839" y="61.441195963206624" font-family="sans-serif">CONNECT</text></g><g class="relationship" transform="translate(158.7720371755066 59.415071985076935) rotate(187.3016747134826)"><path class="outline" fill="#A5ABB6" stroke="none" d="M 10.396609043987748,22.74116356711926 L 11.29757791189017,22.307279828001697 A 44.378816505968636 44.378816505968636 0 0 0 27.515155375020694,40.53055674639692 L 26.97962161197172,41.37507056430318 A 45.378816505968636 45.378816505968636 0 0 1 10.396609043987748,22.74116356711926 Z M 71.01647258748709,43.91483071436934 L 70.58157886109893,43.01434892846347 A 44.378816505968636 44.378816505968636 0 0 0 88.78665948799919,26.77634782656624 L 86.25131813849522,25.17258841770985 L 92.95132166691477,21.127844579199714 L 92.16711462067114,28.914693705041426 L 89.63177327116718,27.310934296185035 A 45.378816505968636 45.378816505968636 0 0 1 71.01647258748709,43.91483071436934"/><text text-anchor="middle" pointer-events="none" font-size="8px" fill="#000000" x="48.6974846829158" y="50.856396435789314" transform="rotate(180 48.6974846829158 47.856396435789314)" font-family="sans-serif">CONNECT</text></g><g class="relationship" transform="translate(158.7720371755066 59.415071985076935) rotate(187.3016747134826)"><path class="outline" fill="#A5ABB6" stroke="none" d="M 14.44320574945421,20.411854586953456 L 15.247803529220876,19.818034401379958 A 44.78474506771666 44.78474506771666 0 0 0 27.72364890570317,31.312012160105 L 27.19762467497911,32.162481741390046 A 45.78474506771666 45.78474506771666 0 0 1 14.44320574945421,20.411854586953456 Z M 71.28044049770412,34.40993739904351 L 70.84363713689031,33.510380383628835 A 44.78474506771666 44.78474506771666 0 0 0 84.42374254364614,23.344802204432057 L 82.20364064184376,21.32709371567223 L 89.5017460010528,18.500849181686476 L 87.38387841271599,26.035080189445157 L 85.1637765109136,24.01737170068533 A 45.78474506771666 45.78474506771666 0 0 1 71.28044049770412,34.40993739904351"/><text text-anchor="middle" pointer-events="none" font-size="8px" fill="#000000" x="48.975771487371084" y="41.449955737882256" transform="rotate(180 48.975771487371084 38.449955737882256)" font-family="sans-serif">CONNECT</text></g><g class="relationship" transform="translate(158.7720371755066 59.415071985076935) rotate(187.3016747134826)"><path class="outline" fill="#A5ABB6" stroke="none" d="M 17.9862104268602,17.370844380187897 L 18.666383164631117,16.637792508358068 A 47.951240916209045 47.951240916209045 0 0 0 27.75554338127715,23.270420295390203 L 27.264920695662934,24.141792420466913 A 48.951240916209045 48.951240916209045 0 0 1 17.9862104268602,17.370844380187897 Z M 71.57267339747942,26.034690590082825 L 71.15815554176069,25.124649411184663 A 47.951240916209045 47.951240916209045 0 0 0 80.77987883211219,19.291380539524518 L 78.9343560704258,16.926207028744066 L 86.60620415088096,15.379356347386395 L 83.24057584769402,22.444945220565117 L 81.39505308600764,20.079771709784666 A 48.951240916209045 48.951240916209045 0 0 1 71.57267339747942,26.034690590082825"/><text text-anchor="middle" pointer-events="none" font-size="8px" fill="#000000" x="49.213481710096076" y="32.89413191208677" transform="rotate(180 49.213481710096076 29.89413191208677)" font-family="sans-serif">CONNECT</text></g><g class="relationship" transform="translate(158.7720371755066 59.415071985076935) rotate(187.3016747134826)"><path class="outline" fill="#A5ABB6" stroke="none" d="M 20.90208894244944,13.724164012497553 L 21.434121018964774,12.87743981326927 A 56.10073203602565 56.10073203602565 0 0 0 27.61010611870209,16.23772737980093 L 27.1881614666391,17.14434897153336 A 57.10073203602565 57.10073203602565 0 0 1 20.90208894244944,13.724164012497553 Z M 71.89027065606051,18.62756497181754 L 71.52935127826801,17.694967951270144 A 56.10073203602565 56.10073203602565 0 0 0 77.91449635923516,14.75145868901774 L 76.49029107271534,12.111072485855598 L 84.31276504770014,11.86837738766518 L 79.8134367412616,18.271973626567263 L 78.38923145474178,15.63158742340512 A 57.10073203602565 57.10073203602565 0 0 1 71.89027065606051,18.62756497181754"/><text text-anchor="middle" pointer-events="none" font-size="8px" fill="#000000" x="49.40453057792598" y="24.94519391699447" transform="rotate(180 49.40453057792598 21.94519391699447)" font-family="sans-serif">CONNECT</text></g><g class="relationship" transform="translate(158.7720371755066 59.415071985076935) rotate(187.3016747134826)"><path class="outline" fill="#A5ABB6" stroke="none" d="M 23.08917320392191,9.598962483481976 L 23.454514228288303,8.668088734837774 A 76.16718050783801 76.16718050783801 0 0 0 27.33955182821186,10.072505154088375 L 27.025217517944903,11.021817505945762 A 77.16718050783801 77.16718050783801 0 0 1 23.08917320392191,9.598962483481976 Z M 72.19385300294293,12.045583697142447 L 71.92285252207533,11.083004485145054 A 76.16718050783801 76.16718050783801 0 0 0 75.8675312115214,9.856051890905968 L 74.89916054047355,7.016640289278913 L 82.6542200604925,8.06975559206548 L 77.15869210625188,13.64193402640871 L 76.19032143520403,10.802522424781655 A 77.16718050783801 77.16718050783801 0 0 1 72.19385300294293,12.045583697142447"/><text text-anchor="middle" pointer-events="none" font-size="8px" fill="#000000" x="49.54426214024618" y="17.413555199725053" transform="rotate(180 49.54426214024618 14.413555199725053)" font-family="sans-serif">CONNECT</text></g><g class="relationship" transform="translate(158.7720371755066 59.415071985076935) rotate(187.3016747134826)"><path class="outline" fill="#A5ABB6" stroke="none" d="M 24.471206027250748,5.139073415689509 L 24.657117634413662,4.15650694245622 A 143.2099520304685 143.2099520304685 0 0 0 27.054092204137024,4.588958896704128 L 26.884918082991934,5.574545075957275 A 144.2099520304685 144.2099520304685 0 0 1 24.471206027250748,5.139073415689509 Z M 72.40394133373435,6.097873434522995 L 72.25747133594149,5.108658321543743 A 143.2099520304685 143.2099520304685 0 0 0 74.66375474257396,4.731429017805876 L 74.17393728716114,1.771685978220697 L 81.65145807750818,4.081812128440161 L 75.31684468312439,8.677753070586114 L 74.82702722771157,5.718010031000935 A 144.2099520304685 144.2099520304685 0 0 1 72.40394133373435,6.097873434522995"/><text text-anchor="middle" pointer-events="none" font-size="8px" fill="#000000" x="49.629398003836215" y="10.143664692462835" transform="rotate(180 49.629398003836215 7.143664692462835)" font-family="sans-serif">CONNECT</text></g><g class="relationship" transform="translate(158.7720371755066 59.415071985076935) rotate(187.3016747134826)"><path class="outline" fill="#A5ABB6" stroke="none" d="M 25 0.5 L 26.880647953692332 0.5 L 26.880647953692332 -0.5 L 25 -0.5 Z M 72.43533545369233 0.5 L 74.31598340738466 0.5 L 74.31598340738466 3.5 L 81.31598340738466 0 L 74.31598340738466 -3.5 L 74.31598340738466 -0.5 L 72.43533545369233 -0.5 Z"/><text text-anchor="middle" pointer-events="none" font-size="8px" fill="#000000" x="49.65799170369233" y="3" transform="rotate(180 49.65799170369233 0)" font-family="sans-serif">CONNECT</text></g><g class="relationship" transform="translate(158.7720371755066 59.415071985076935) rotate(187.3016747134826)"><path class="outline" fill="#A5ABB6" stroke="none" d="M 24.471206027250748,-5.139073415689509 L 24.657117634413662,-4.15650694245622 A 143.2099520304685 143.2099520304685 0 0 1 27.054092204137007,-4.588958896704128 L 26.884918082991916,-5.574545075957275 A 144.2099520304685 144.2099520304685 0 0 0 24.471206027250748,-5.139073415689509 Z M 72.40394133373437,-6.097873434522995 L 72.2574713359415,-5.108658321543743 A 143.2099520304685 143.2099520304685 0 0 1 74.66375474257396,-4.731429017805876 L 74.17393728716114,-1.771685978220697 L 81.65145807750818,-4.081812128440161 L 75.31684468312439,-8.677753070586114 L 74.82702722771157,-5.718010031000935 A 144.2099520304685 144.2099520304685 0 0 0 72.40394133373437,-6.097873434522995"/><text text-anchor="middle" pointer-events="none" font-size="8px" fill="#000000" x="49.629398003836215" y="-4.143664692462835" transform="rotate(180 49.629398003836215 -7.143664692462835)" font-family="sans-serif">CONNECT</text></g><g class="relationship" transform="translate(158.7720371755066 59.415071985076935) rotate(187.3016747134826)"><path class="outline" fill="#A5ABB6" stroke="none" d="M 23.08917320392191,-9.598962483481976 L 23.454514228288303,-8.668088734837774 A 76.16718050783801 76.16718050783801 0 0 1 27.339551828211828,-10.072505154088361 L 27.025217517944867,-11.021817505945748 A 77.16718050783801 77.16718050783801 0 0 0 23.08917320392191,-9.598962483481976 Z M 72.1938530029429,-12.045583697142447 L 71.9228525220753,-11.083004485145054 A 76.16718050783801 76.16718050783801 0 0 1 75.8675312115214,-9.856051890905968 L 74.89916054047355,-7.016640289278913 L 82.6542200604925,-8.06975559206548 L 77.15869210625188,-13.64193402640871 L 76.19032143520403,-10.802522424781655 A 77.16718050783801 77.16718050783801 0 0 0 72.1938530029429,-12.045583697142447"/><text text-anchor="middle" pointer-events="none" font-size="8px" fill="#000000" x="49.54426214024615" y="-11.413555199725053" transform="rotate(180 49.54426214024615 -14.413555199725053)" font-family="sans-serif">CONNECT</text></g><g class="relationship" transform="translate(158.7720371755066 59.415071985076935) rotate(187.3016747134826)"><path class="outline" fill="#A5ABB6" stroke="none" d="M 20.90208894244944,-13.724164012497553 L 21.434121018964774,-12.87743981326927 A 56.10073203602565 56.10073203602565 0 0 1 27.61010611870209,-16.23772737980093 L 27.1881614666391,-17.14434897153336 A 57.10073203602565 57.10073203602565 0 0 0 20.90208894244944,-13.724164012497553 Z M 71.89027065606051,-18.62756497181754 L 71.52935127826801,-17.694967951270144 A 56.10073203602565 56.10073203602565 0 0 1 77.91449635923516,-14.75145868901774 L 76.49029107271534,-12.111072485855598 L 84.31276504770014,-11.86837738766518 L 79.8134367412616,-18.271973626567263 L 78.38923145474178,-15.63158742340512 A 57.10073203602565 57.10073203602565 0 0 0 71.89027065606051,-18.62756497181754"/><text text-anchor="middle" pointer-events="none" font-size="8px" fill="#000000" x="49.40453057792598" y="-18.94519391699447" transform="rotate(180 49.40453057792598 -21.94519391699447)" font-family="sans-serif">CONNECT</text></g><g class="relationship" transform="translate(158.7720371755066 59.415071985076935) rotate(187.3016747134826)"><path class="outline" fill="#A5ABB6" stroke="none" d="M 17.9862104268602,-17.370844380187897 L 18.666383164631117,-16.637792508358068 A 47.951240916209045 47.951240916209045 0 0 1 27.75554338127715,-23.270420295390203 L 27.264920695662934,-24.141792420466913 A 48.951240916209045 48.951240916209045 0 0 0 17.9862104268602,-17.370844380187897 Z M 71.5726733974794,-26.034690590082825 L 71.15815554176069,-25.124649411184663 A 47.951240916209045 47.951240916209045 0 0 1 80.77987883211219,-19.291380539524518 L 78.9343560704258,-16.926207028744066 L 86.60620415088096,-15.379356347386395 L 83.24057584769402,-22.444945220565117 L 81.39505308600764,-20.079771709784666 A 48.951240916209045 48.951240916209045 0 0 0 71.5726733974794,-26.034690590082825"/><text text-anchor="middle" pointer-events="none" font-size="8px" fill="#000000" x="49.21348171009607" y="-26.89413191208677" transform="rotate(180 49.21348171009607 -29.89413191208677)" font-family="sans-serif">CONNECT</text></g><g class="relationship" transform="translate(158.7720371755066 59.415071985076935) rotate(187.3016747134826)"><path class="outline" fill="#A5ABB6" stroke="none" d="M 14.44320574945421,-20.411854586953456 L 15.247803529220876,-19.818034401379958 A 44.78474506771666 44.78474506771666 0 0 1 27.723648905703165,-31.312012160105 L 27.197624674979103,-32.162481741390046 A 45.78474506771666 45.78474506771666 0 0 0 14.44320574945421,-20.411854586953456 Z M 71.28044049770412,-34.409937399043514 L 70.84363713689031,-33.510380383628835 A 44.78474506771666 44.78474506771666 0 0 1 84.42374254364614,-23.344802204432057 L 82.20364064184376,-21.32709371567223 L 89.5017460010528,-18.500849181686476 L 87.38387841271599,-26.035080189445157 L 85.1637765109136,-24.01737170068533 A 45.78474506771666 45.78474506771666 0 0 0 71.28044049770412,-34.409937399043514"/><text text-anchor="middle" pointer-events="none" font-size="8px" fill="#000000" x="48.97577148737108" y="-35.449955737882256" transform="rotate(180 48.97577148737108 -38.449955737882256)" font-family="sans-serif">CONNECT</text></g><g class="relationship" transform="translate(158.7720371755066 59.415071985076935) rotate(187.3016747134826)"><path class="outline" fill="#A5ABB6" stroke="none" d="M 10.396609043987748,-22.74116356711926 L 11.29757791189017,-22.307279828001697 A 44.378816505968636 44.378816505968636 0 0 1 27.515155375020672,-40.530556746396904 L 26.9796216119717,-41.375070564303165 A 45.378816505968636 45.378816505968636 0 0 0 10.396609043987748,-22.74116356711926 Z M 71.01647258748707,-43.914830714369344 L 70.58157886109892,-43.01434892846348 A 44.378816505968636 44.378816505968636 0 0 1 88.78665948799919,-26.77634782656624 L 86.25131813849522,-25.17258841770985 L 92.95132166691477,-21.127844579199714 L 92.16711462067114,-28.914693705041426 L 89.63177327116718,-27.310934296185035 A 45.378816505968636 45.378816505968636 0 0 0 71.01647258748707,-43.914830714369344"/><text text-anchor="middle" pointer-events="none" font-size="8px" fill="#000000" x="48.697484682915785" y="-44.856396435789314" transform="rotate(180 48.697484682915785 -47.856396435789314)" font-family="sans-serif">CONNECT</text></g><g class="relationship" transform="translate(158.7720371755066 59.415071985076935) rotate(187.3016747134826)"><path class="outline" fill="#A5ABB6" stroke="none" d="M 5.987513214418485,-24.277555179777966 L 6.953439040707552,-24.018736134675446 A 45.89179596503352 45.89179596503352 0 0 1 27.16044454732775,-51.18246821189612 L 26.63483719369154,-52.03319549475682 A 46.89179596503352 46.89179596503352 0 0 0 5.987513214418485,-24.277555179777966 Z M 70.76651715242362,-54.792853379439435 L 70.35098589000766,-53.883274482391464 A 45.89179596503352 45.89179596503352 0 0 1 93.78456808855535,-29.448491134640644 L 91.00609381771936,-28.317084608982206 L 96.88759569356436,-23.15395225696644 L 97.48920044966998,-30.957033168851893 L 94.710726178834,-29.825626643193456 A 46.89179596503352 46.89179596503352 0 0 0 70.76651715242362,-54.792853379439435"/><text text-anchor="middle" pointer-events="none" font-size="8px" fill="#000000" x="48.38617699726304" y="-55.44242361812225" transform="rotate(180 48.38617699726304 -58.44242361812225)" font-family="sans-serif">CONNECT</text></g></g><g class="layer nodes"><g class="node" transform="translate(134.09017338105306,162.82318472970792)"><circle class="outline" cx="0" cy="0" r="25" fill="#A5ABB6" stroke="#9AA1AC" stroke-width="2px"/><text text-anchor="middle" pointer-events="none" font-family="sans-serif" dy="1.5625" font-size="25" fill="#FFFFFF"/><text text-anchor="middle" pointer-events="none" y="5" font-size="10px" fill="#FFFFFF" font-family="sans-serif"> MSN</text></g><g class="node" transform="translate(158.7720371755066,59.415071985076935)"><circle class="outline" cx="0" cy="0" r="25" fill="#A5ABB6" stroke="#9AA1AC" stroke-width="2px"/><text text-anchor="middle" pointer-events="none" font-family="sans-serif" dy="1.5625" font-size="25" fill="#FFFFFF"/><text text-anchor="middle" pointer-events="none" y="5" font-size="10px" fill="#FFFFFF" font-family="sans-serif"> ORD</text></g><g class="node" transform="translate(53.31819897837221,45.90299082147041)"><circle class="outline" cx="0" cy="0" r="25" fill="#A5ABB6" stroke="#9AA1AC" stroke-width="2px"/><text text-anchor="middle" pointer-events="none" font-family="sans-serif" dy="1.5625" font-size="25" fill="#FFFFFF"/><text text-anchor="middle" pointer-events="none" y="5" font-size="10px" fill="#FFFFFF" font-family="sans-serif"> GRR</text></g></g></svg>