<svg xmlns="http://www.w3.org/2000/svg" width="283.1493835449219" height="275.10772705078125" viewBox="-35.874595642089844 -43.06433868408203 283.1493835449219 275.10772705078125"><title>Neo4j Graph Visualization</title><desc>Created using Neo4j (http://www.neo4j.com/)</desc><g class="layer relationships"><g class="relationship" transform="translate(132.98789076951678 203.04340322104298) rotate(257.1427138946725)"><path class="outline" fill="#A5ABB6" stroke="none" d="M 25 0.5 L 31.065934222111487 0.5 L 31.065934222111487 -0.5 L 25 -0.5 Z M 76.62843422211148 0.5 L 82.69436844422297 0.5 L 82.69436844422297 3.5 L 89.69436844422297 0 L 82.69436844422297 -3.5 L 82.69436844422297 -0.5 L 76.62843422211148 -0.5 Z"/><text text-anchor="middle" pointer-events="none" font-size="8px" fill="#000000" x="53.84718422211149" y="3" transform="rotate(180 53.84718422211149 0)" font-family="sans-serif">ACTED_IN</text></g><g class="relationship" transform="translate(218.27477708181746 119.15170305458325) rotate(194.14554732115982)"><path class="outline" fill="#A5ABB6" stroke="none" d="M 25 0.5 L 30.855788532292365 0.5 L 30.855788532292365 -0.5 L 25 -0.5 Z M 76.41828853229237 0.5 L 82.27407706458473 0.5 L 82.27407706458473 3.5 L 89.27407706458473 0 L 82.27407706458473 -3.5 L 82.27407706458473 -0.5 L 76.41828853229237 -0.5 Z"/><text text-anchor="middle" pointer-events="none" font-size="8px" fill="#000000" x="53.637038532292365" y="3" transform="rotate(180 53.637038532292365 0)" font-family="sans-serif">ACTED_IN</text></g><g class="relationship" transform="translate(182.61590628484757 3.790399589777093) rotate(490.67920572340563)"><path class="outline" fill="#A5ABB6" stroke="none" d="M 25 0.5 L 36.2594279743548 0.5 L 36.2594279743548 -0.5 L 25 -0.5 Z M 72.0328654743548 0.5 L 83.2922934487096 0.5 L 83.2922934487096 3.5 L 90.2922934487096 0 L 83.2922934487096 -3.5 L 83.2922934487096 -0.5 L 72.0328654743548 -0.5 Z"/><text text-anchor="middle" pointer-events="none" font-size="8px" fill="#000000" x="54.1461467243548" y="3" transform="rotate(180 54.1461467243548 0)" font-family="sans-serif">WROTE</text></g><g class="relationship" transform="translate(63.18941781298012 -14.064339601629952) rotate(427.1922090922064)"><path class="outline" fill="#A5ABB6" stroke="none" d="M 25 0.5 L 30.164620177088203 0.5 L 30.164620177088203 -0.5 L 25 -0.5 Z M 77.05524517708821 0.5 L 82.2198653541764 0.5 L 82.2198653541764 3.5 L 89.2198653541764 0 L 82.2198653541764 -3.5 L 82.2198653541764 -0.5 L 77.05524517708821 -0.5 Z"/><text text-anchor="middle" pointer-events="none" font-size="8px" fill="#000000" x="53.6099326770882" y="3" font-family="sans-serif">DIRECTED</text></g><g class="relationship" transform="translate(-6.874594792661014 82.9183740689769) rotate(364.1550030937041)"><path class="outline" fill="#A5ABB6" stroke="none" d="M 25 0.5 L 31.039561047467295 0.5 L 31.039561047467295 -0.5 L 25 -0.5 Z M 76.60206104746729 0.5 L 82.64162209493459 0.5 L 82.64162209493459 3.5 L 89.64162209493459 0 L 82.64162209493459 -3.5 L 82.64162209493459 -0.5 L 76.60206104746729 -0.5 Z"/><text text-anchor="middle" pointer-events="none" font-size="8px" fill="#000000" x="53.820811047467295" y="3" font-family="sans-serif">ACTED_IN</text></g><g class="relationship" transform="translate(31.460121466607795 179.75791649223535) rotate(310.6460333375627)"><path class="outline" fill="#A5ABB6" stroke="none" d="M 25 0.5 L 36.954895515991886 0.5 L 36.954895515991886 -0.5 L 25 -0.5 Z M 72.7283330159919 0.5 L 84.68322853198377 0.5 L 84.68322853198377 3.5 L 91.68322853198377 0 L 84.68322853198377 -3.5 L 84.68322853198377 -0.5 L 72.7283330159919 -0.5 Z"/><text text-anchor="middle" pointer-events="none" font-size="8px" fill="#000000" x="54.841614265991886" y="3" font-family="sans-serif">WROTE</text></g></g><g class="layer nodes"><g class="node" transform="translate(132.98789076951678,203.04340322104298)"><circle class="outline" cx="0" cy="0" r="25" fill="#6DCE9E" stroke="#60B58B" stroke-width="2px"/><text text-anchor="middle" pointer-events="none" font-family="sans-serif" dy="1.5625" font-size="25" fill="#FFFFFF"/><text text-anchor="middle" pointer-events="none" font-family="sans-serif" dy="1.5625" font-size="25" fill="#FFFFFF"/><text text-anchor="middle" pointer-events="none" y="0" font-size="10px" fill="#FFFFFF" font-family="sans-serif"> Hugo</text><text text-anchor="middle" pointer-events="none" y="10" font-size="10px" fill="#FFFFFF" font-family="sans-serif"> Weaving</text></g><g class="node" transform="translate(107.46571321995661,91.22472586368957)"><circle class="outline" cx="0" cy="0" r="25" fill="#68BDF6" stroke="#5CA8DB" stroke-width="2px"/><text text-anchor="middle" pointer-events="none" font-family="sans-serif" dy="1.5625" font-size="25" fill="#FFFFFF"/><text text-anchor="middle" pointer-events="none" font-family="sans-serif" dy="1.5625" font-size="25" fill="#FFFFFF"/><text text-anchor="middle" pointer-events="none" font-family="sans-serif" dy="1.5625" font-size="25" fill="#FFFFFF"/><text text-anchor="middle" pointer-events="none" y="-5" font-size="10px" fill="#FFFFFF" font-family="sans-serif"> Captain</text><text text-anchor="middle" pointer-events="none" y="5" font-size="10px" fill="#FFFFFF" font-family="sans-serif"> America:</text><text text-anchor="middle" pointer-events="none" y="15" font-size="10px" fill="#FFFFFF" font-family="sans-serif"> The Fi…</text></g><g class="node" transform="translate(218.27477708181746,119.15170305458325)"><circle class="outline" cx="0" cy="0" r="25" fill="#6DCE9E" stroke="#60B58B" stroke-width="2px"/><text text-anchor="middle" pointer-events="none" font-family="sans-serif" dy="1.5625" font-size="25" fill="#FFFFFF"/><text text-anchor="middle" pointer-events="none" font-family="sans-serif" dy="1.5625" font-size="25" fill="#FFFFFF"/><text text-anchor="middle" pointer-events="none" font-family="sans-serif" dy="1.5625" font-size="25" fill="#FFFFFF"/><text text-anchor="middle" pointer-events="none" y="-5" font-size="10px" fill="#FFFFFF" font-family="sans-serif"> Samuel</text><text text-anchor="middle" pointer-events="none" y="5" font-size="10px" fill="#FFFFFF" font-family="sans-serif"> L.</text><text text-anchor="middle" pointer-events="none" y="15" font-size="10px" fill="#FFFFFF" font-family="sans-serif"> Jackson</text></g><g class="node" transform="translate(182.61590628484757,3.790399589777093)"><circle class="outline" cx="0" cy="0" r="25" fill="#6DCE9E" stroke="#60B58B" stroke-width="2px"/><text text-anchor="middle" pointer-events="none" font-family="sans-serif" dy="1.5625" font-size="25" fill="#FFFFFF"/><text text-anchor="middle" pointer-events="none" y="5" font-size="10px" fill="#FFFFFF" font-family="sans-serif"> Christop…</text></g><g class="node" transform="translate(63.18941781298012,-14.064339601629952)"><circle class="outline" cx="0" cy="0" r="25" fill="#6DCE9E" stroke="#60B58B" stroke-width="2px"/><text text-anchor="middle" pointer-events="none" font-family="sans-serif" dy="1.5625" font-size="25" fill="#FFFFFF"/><text text-anchor="middle" pointer-events="none" font-family="sans-serif" dy="1.5625" font-size="25" fill="#FFFFFF"/><text text-anchor="middle" pointer-events="none" y="0" font-size="10px" fill="#FFFFFF" font-family="sans-serif"> Joe</text><text text-anchor="middle" pointer-events="none" y="10" font-size="10px" fill="#FFFFFF" font-family="sans-serif"> Johnston</text></g><g class="node" transform="translate(-6.874594792661014,82.9183740689769)"><circle class="outline" cx="0" cy="0" r="25" fill="#6DCE9E" stroke="#60B58B" stroke-width="2px"/><text text-anchor="middle" pointer-events="none" font-family="sans-serif" dy="1.5625" font-size="25" fill="#FFFFFF"/><text text-anchor="middle" pointer-events="none" font-family="sans-serif" dy="1.5625" font-size="25" fill="#FFFFFF"/><text text-anchor="middle" pointer-events="none" y="0" font-size="10px" fill="#FFFFFF" font-family="sans-serif"> Chris</text><text text-anchor="middle" pointer-events="none" y="10" font-size="10px" fill="#FFFFFF" font-family="sans-serif"> Evans</text></g><g class="node" transform="translate(31.460121466607795,179.75791649223535)"><circle class="outline" cx="0" cy="0" r="25" fill="#6DCE9E" stroke="#60B58B" stroke-width="2px"/><text text-anchor="middle" pointer-events="none" font-family="sans-serif" dy="1.5625" font-size="25" fill="#FFFFFF"/><text text-anchor="middle" pointer-events="none" font-family="sans-serif" dy="1.5625" font-size="25" fill="#FFFFFF"/><text text-anchor="middle" pointer-events="none" y="0" font-size="10px" fill="#FFFFFF" font-family="sans-serif"> Stephen</text><text text-anchor="middle" pointer-events="none" y="10" font-size="10px" fill="#FFFFFF" font-family="sans-serif"> McFeely</text></g></g></svg>