<svg xmlns="http://www.w3.org/2000/svg" width="395.41455078125" height="411.05810546875" viewBox="-89.56208801269531 -94.96508026123047 395.41455078125 411.05810546875"><title>Neo4j Graph Visualization</title><desc>Created using Neo4j (http://www.neo4j.com/)</desc><g class="layer relationships"><g class="relationship" transform="translate(155.43896220948247 287.09300837578337) rotate(320.19137367263363)"><path class="outline" fill="#A5ABB6" stroke="none" d="M 24.018736134675446,-6.953439040707552 L 24.277555179777966,-5.987513214418485 A 110.51928410145831 110.51928410145831 0 0 1 41.55412057078794,-9.17129245890412 L 41.45162325298823,-10.166025739660256 A 111.51928410145831 111.51928410145831 0 0 0 24.018736134675446,-6.953439040707552 Z M 60.84774591626647,-10.468512441424082 L 60.77631705780386,-9.471066744566983 A 110.51928410145831 110.51928410145831 0 0 1 78.14376009749853,-6.827568257633049 L 77.45804150422634,-3.9069878340116055 L 85.07273418482725,-5.714321610601529 L 79.05805155519477,-10.721675489128309 L 78.37233296192258,-7.801095065506865 A 111.51928410145831 111.51928410145831 0 0 0 60.84774591626647,-10.468512441424082"/><text text-anchor="middle" pointer-events="none" font-size="8px" fill="#000000" x="51.15089166470604" y="-7.239868420911932" font-family="sans-serif">trek</text></g><g class="relationship" transform="translate(239.48701208099772 217.04537236705858) rotate(287.28397922781517)"><path class="outline" fill="#A5ABB6" stroke="none" d="M 21.40063509461097,-12.933012701892217 L 21.90063509461097,-12.06698729810778 A 66.9855509273271 66.9855509273271 0 0 1 43.906460519209226,-20.049086135679588 L 43.734976521838995,-21.034273041117288 A 67.9855509273271 67.9855509273271 0 0 0 21.40063509461097,-12.933012701892217 Z M 63.13940711905185,-21.598634340132506 L 63.0254711950927,-20.605146239936246 A 66.9855509273271 66.9855509273271 0 0 1 85.45801181959615,-13.915499343375638 L 84.11154526770025,-11.23463608229245 L 91.9377705207729,-11.22055459913242 L 87.25330055545734,-17.489983691486554 L 85.90683400356144,-14.809120430403366 A 67.9855509273271 67.9855509273271 0 0 0 63.13940711905185,-21.598634340132506"/><text text-anchor="middle" pointer-events="none" font-size="8px" fill="#000000" x="53.4314805303884" y="-18.51282493671411" font-family="sans-serif">trek</text></g><g class="relationship" transform="translate(273.4399967597075 107.92743545561663) rotate(189.8060853884915)"><path class="outline" fill="#A5ABB6" stroke="none" d="M 21.40063509461097,12.933012701892217 L 21.90063509461097,12.06698729810778 A 69.5259696374836 69.5259696374836 0 0 0 45.137194788194805,20.419584658526773 L 44.97140889286306,21.40574642867864 A 70.5259696374836 70.5259696374836 0 0 1 21.40063509461097,12.933012701892217 Z M 64.3757224009598,21.958768882150352 L 64.26637115733637,20.96476571036567 A 69.5259696374836 69.5259696374836 0 0 0 87.94092500031475,13.949133921661135 L 86.59132979509667,11.269844317670488 L 94.41753327716262,11.246626710150712 L 89.74038527393887,17.521520060315332 L 88.39079006872079,14.842230456324684 A 70.5259696374836 70.5259696374836 0 0 1 64.3757224009598,21.958768882150352"/><text text-anchor="middle" pointer-events="none" font-size="8px" fill="#000000" x="54.668691540769025" y="24.85327907247482" transform="rotate(180 54.668691540769025 21.85327907247482)" font-family="sans-serif">trek</text></g><g class="relationship" transform="translate(158.40071538849844 88.04411811549119) rotate(527.597095821722)"><path class="outline" fill="#A5ABB6" stroke="none" d="M 25 0.5 L 56.94700090847043 0.5 L 56.94700090847043 -0.5 L 25 -0.5 Z M 76.28293840847043 0.5 L 108.22993931694086 0.5 L 108.22993931694086 3.5 L 115.22993931694086 0 L 108.22993931694086 -3.5 L 108.22993931694086 -0.5 L 76.28293840847043 -0.5 Z"/><text text-anchor="middle" pointer-events="none" font-size="8px" fill="#000000" x="66.61496965847043" y="3" transform="rotate(180 66.61496965847043 0)" font-family="sans-serif">trek</text></g><g class="relationship" transform="translate(273.4399967597075 107.92743545561663) rotate(189.8060853884915)"><path class="outline" fill="#A5ABB6" stroke="none" d="M 25 0.5 L 31.640051446875674 0.5 L 31.640051446875674 -0.5 L 25 -0.5 Z M 78.10489519687567 0.5 L 84.74494664375135 0.5 L 84.74494664375135 3.5 L 91.74494664375135 0 L 84.74494664375135 -3.5 L 84.74494664375135 -0.5 L 78.10489519687567 -0.5 Z"/><text text-anchor="middle" pointer-events="none" font-size="8px" fill="#000000" x="54.872473321875674" y="3" transform="rotate(180 54.872473321875674 0)" font-family="sans-serif">twowheeler</text></g><g class="relationship" transform="translate(273.4399967597075 107.92743545561663) rotate(189.8060853884915)"><path class="outline" fill="#A5ABB6" stroke="none" d="M 21.40063509461097,-12.933012701892217 L 21.90063509461097,-12.06698729810778 A 69.5259696374836 69.5259696374836 0 0 1 43.82942217207194,-20.186864993513993 L 43.64482643312432,-21.16967953001739 A 70.5259696374836 70.5259696374836 0 0 0 21.40063509461097,-12.933012701892217 Z M 65.71359646116682,-21.7986389281903 L 65.58527526835894,-20.80690626689676 A 69.5259696374836 69.5259696374836 0 0 1 87.94092500031475,-13.949133921661135 L 86.59132979509667,-11.269844317670488 L 94.41753327716262,-11.246626710150712 L 89.74038527393887,-17.521520060315332 L 88.39079006872079,-14.842230456324684 A 70.5259696374836 70.5259696374836 0 0 0 65.71359646116682,-21.7986389281903"/><text text-anchor="middle" pointer-events="none" font-size="8px" fill="#000000" x="54.66869154076903" y="-18.85327907247482" transform="rotate(180 54.66869154076903 -21.85327907247482)" font-family="sans-serif">road</text></g><g class="relationship" transform="translate(239.48701208099772 217.04537236705858) rotate(287.28397922781517)"><path class="outline" fill="#A5ABB6" stroke="none" d="M 25 0.5 L 42.63328947323305 0.5 L 42.63328947323305 -0.5 L 25 -0.5 Z M 64.64500822323305 0.5 L 82.2782976964661 0.5 L 82.2782976964661 3.5 L 89.2782976964661 0 L 82.2782976964661 -3.5 L 82.2782976964661 -0.5 L 64.64500822323305 -0.5 Z"/><text text-anchor="middle" pointer-events="none" font-size="8px" fill="#000000" x="53.63914884823305" y="3" font-family="sans-serif">road</text></g><g class="relationship" transform="translate(239.48701208099772 217.04537236705858) rotate(287.28397922781517)"><path class="outline" fill="#A5ABB6" stroke="none" d="M 21.40063509461097,12.933012701892217 L 21.90063509461097,12.06698729810778 A 66.9855509273271 66.9855509273271 0 0 0 30.962340741690156,16.427161012941745 L 30.59761925357267,17.35827767378794 A 67.9855509273271 67.9855509273271 0 0 1 21.40063509461097,12.933012701892217 Z M 76.4682033714553,18.692384454693567 L 76.15821407923482,17.741644406778967 A 66.9855509273271 66.9855509273271 0 0 0 85.45801181959615,13.915499343375638 L 84.11154526770025,11.23463608229245 L 91.9377705207729,11.22055459913242 L 87.25330055545734,17.489983691486554 L 85.90683400356144,14.809120430403366 A 67.9855509273271 67.9855509273271 0 0 1 76.4682033714553,18.692384454693567"/><text text-anchor="middle" pointer-events="none" font-size="8px" fill="#000000" x="53.43148053038842" y="24.51282493671411" font-family="sans-serif">twowheeler</text></g><g class="relationship" transform="translate(155.43896220948247 287.09300837578337) rotate(320.19137367263363)"><path class="outline" fill="#A5ABB6" stroke="none" d="M 24.018736134675446,6.953439040707552 L 24.277555179777966,5.987513214418485 A 110.51928410145831 110.51928410145831 0 0 0 40.230124605005585,9.0268003847834 L 40.115647513933304,10.02022627312114 A 111.51928410145831 111.51928410145831 0 0 1 24.018736134675446,6.953439040707552 Z M 62.18761840835813,10.364443403172686 L 62.104174834208564,9.367930899521497 A 110.51928410145831 110.51928410145831 0 0 0 78.14376009749853,6.827568257633049 L 77.45804150422634,3.9069878340116055 L 85.07273418482725,5.714321610601529 L 79.05805155519477,10.721675489128309 L 78.37233296192258,7.801095065506865 A 111.51928410145831 111.51928410145831 0 0 1 62.18761840835813,10.364443403172686"/><text text-anchor="middle" pointer-events="none" font-size="8px" fill="#000000" x="51.15089166470605" y="13.239868420911932" font-family="sans-serif">road</text></g><g class="relationship" transform="translate(155.43896220948247 287.09300837578337) rotate(257.12271988884635)"><path class="outline" fill="#A5ABB6" stroke="none" d="M 21.40063509461097,12.933012701892217 L 21.90063509461097,12.06698729810778 A 63.97540000754027 63.97540000754027 0 0 0 22.74183223532491,12.544211514829215 L 22.254980994701402,13.417696414242684 A 64.97540000754027 64.97540000754027 0 0 1 21.40063509461097,12.933012701892217 Z M 82.08513087457541,15.201057470592481 L 81.65116977894657,14.30012585971371 A 63.97540000754027 63.97540000754027 0 0 0 82.51929755584926,13.873851598772886 L 81.17670513185064,11.19104605549892 L 89.00294256082162,11.188270199988448 L 84.30942078784742,17.450925656471508 L 82.96682836384879,14.768120113197542 A 64.97540000754027 64.97540000754027 0 0 1 82.08513087457541,15.201057470592481"/><text text-anchor="middle" pointer-events="none" font-size="8px" fill="#000000" x="51.967365941725355" y="24.1094428135206" transform="rotate(180 51.967365941725355 21.1094428135206)" font-family="sans-serif">PublicTransport</text></g><g class="relationship" transform="translate(130.62095187948347 178.5340878816965) rotate(287.0661059258431)"><path class="outline" fill="#A5ABB6" stroke="none" d="M 25 0.5 L 34.16106538578591 0.5 L 34.16106538578591 -0.5 L 25 -0.5 Z M 53.49700288578591 0.5 L 62.65806827157182 0.5 L 62.65806827157182 3.5 L 69.65806827157182 0 L 62.65806827157182 -3.5 L 62.65806827157182 -0.5 L 53.49700288578591 -0.5 Z"/><text text-anchor="middle" pointer-events="none" font-size="8px" fill="#000000" x="43.82903413578591" y="3" font-family="sans-serif">trek</text></g><g class="relationship" transform="translate(130.62095187948347 178.5340878816965) rotate(257.947807387866)"><path class="outline" fill="#A5ABB6" stroke="none" d="M 24.018736134675446,-6.953439040707552 L 24.277555179777966,-5.987513214418485 A 177.19124704717194 177.19124704717194 0 0 1 58.36341364047181,-11.633505866007852 L 58.29696221526431,-12.631295527253087 A 178.19124704717194 178.19124704717194 0 0 0 24.018736134675446,-6.953439040707552 Z M 77.67632621669772,-12.865634885986111 L 77.6340216602138,-11.866530124461718 A 177.19124704717194 177.19124704717194 0 0 1 111.84643850906288,-7.046414629492434 L 111.1402792377151,-4.130709040189975 L 118.7674447626599,-5.88466059456472 L 112.78798420419324,-10.93402208189571 L 112.08182493284546,-8.018316492593252 A 178.19124704717194 178.19124704717194 0 0 0 77.67632621669772,-12.865634885986111"/><text text-anchor="middle" pointer-events="none" font-size="8px" fill="#000000" x="67.98950156169344" y="-9.512168824575014" transform="rotate(180 67.98950156169344 -12.512168824575014)" font-family="sans-serif">trek</text></g><g class="relationship" transform="translate(100.74860524231141 38.622563504486905) rotate(190.2372498059409)"><path class="outline" fill="#A5ABB6" stroke="none" d="M 24.018736134675446,-6.953439040707552 L 24.277555179777966,-5.987513214418485 A 95.68448279843881 95.68448279843881 0 0 1 37.856650700366316,-8.591798699292013 L 37.73974699120382,-9.584941953200556 A 96.68448279843881 96.68448279843881 0 0 0 24.018736134675446,-6.953439040707552 Z M 57.14079565414089,-9.908131003996402 L 57.05703584314593,-8.911645031158812 A 95.68448279843881 95.68448279843881 0 0 1 70.71533907628273,-6.761089094739084 L 70.03583023241497,-3.839057655636232 L 77.64666390816735,-5.662573698898095 L 71.62135086810643,-10.657131013542887 L 70.94184202423867,-7.735099574440035 A 96.68448279843881 96.68448279843881 0 0 0 57.14079565414089,-9.908131003996402"/><text text-anchor="middle" pointer-events="none" font-size="8px" fill="#000000" x="47.44047116252125" y="-6.734540086321118" transform="rotate(180 47.44047116252125 -9.734540086321118)" font-family="sans-serif">trek</text></g><g class="relationship" transform="translate(0.37544270286297404 20.495204760849095) rotate(437.82718549365785)"><path class="outline" fill="#A5ABB6" stroke="none" d="M 24.018736134675446,6.953439040707552 L 24.277555179777966,5.987513214418485 A 91.50434515099504 91.50434515099504 0 0 0 36.81899614194384,8.424609584547483 L 36.69723551676084,9.417169079064081 A 92.50434515099504 92.50434515099504 0 0 1 24.018736134675446,6.953439040707552 Z M 56.09969795264802,9.746690653654397 L 56.01171207993175,8.750568931071086 A 91.50434515099504 91.50434515099504 0 0 0 68.6286771918765,6.740750160943502 L 67.95106822992128,3.818277561469224 L 75.56071475097569,5.646741349626993 L 69.53215580781682,10.637380293575873 L 68.85454684586159,7.714907694101596 A 92.50434515099504 92.50434515099504 0 0 1 56.09969795264802,9.746690653654397"/><text text-anchor="middle" pointer-events="none" font-size="8px" fill="#000000" x="46.398292614023006" y="12.592182214736724" font-family="sans-serif">trek</text></g><g class="relationship" transform="translate(0.37544270286297404 20.495204760849095) rotate(437.82718549365785)"><path class="outline" fill="#A5ABB6" stroke="none" d="M 24.018736134675446,-6.953439040707552 L 24.277555179777966,-5.987513214418485 A 91.50434515099504 91.50434515099504 0 0 1 26.16742837027661,-6.472368758970433 L 25.92926269619576,-7.443593301334147 A 92.50434515099504 92.50434515099504 0 0 0 24.018736134675446,-6.953439040707552 Z M 66.9284778458066,-8.13990316291536 L 66.72342958131313,-7.161151299965297 A 91.50434515099504 91.50434515099504 0 0 1 68.6286771918765,-6.740750160943502 L 67.95106822992128,-3.818277561469224 L 75.56071475097569,-5.646741349626993 L 69.53215580781682,-10.637380293575873 L 68.85454684586159,-7.714907694101596 A 92.50434515099504 92.50434515099504 0 0 0 66.9284778458066,-8.13990316291536"/><text text-anchor="middle" pointer-events="none" font-size="8px" fill="#000000" x="46.39829261402302" y="-6.592182214736724" font-family="sans-serif">twowhe…</text></g><g class="relationship" transform="translate(100.74860524231141 38.622563504486905) rotate(190.2372498059409)"><path class="outline" fill="#A5ABB6" stroke="none" d="M 24.018736134675446,6.953439040707552 L 24.277555179777966,5.987513214418485 A 95.68448279843881 95.68448279843881 0 0 0 24.610661165932804,6.076125941070558 L 24.355323416610045,7.042977860327468 A 96.68448279843881 96.68448279843881 0 0 1 24.018736134675446,6.953439040707552 Z M 70.60245918973605,7.813377861493208 L 70.37946645174019,6.838557755626951 A 95.68448279843881 95.68448279843881 0 0 0 70.71533907628273,6.761089094739084 L 70.03583023241497,3.839057655636232 L 77.64666390816735,5.662573698898095 L 71.62135086810643,10.657131013542887 L 70.94184202423867,7.735099574440035 A 96.68448279843881 96.68448279843881 0 0 1 70.60245918973605,7.813377861493208"/><text text-anchor="middle" pointer-events="none" font-size="8px" fill="#000000" x="47.44047116252128" y="12.734540086321118" transform="rotate(180 47.44047116252128 9.734540086321118)" font-family="sans-serif">twowheeler</text></g><g class="relationship" transform="translate(130.62095187948347 178.5340878816965) rotate(257.947807387866)"><path class="outline" fill="#A5ABB6" stroke="none" d="M 24.018736134675446,6.953439040707552 L 24.277555179777966,5.987513214418485 A 177.19124704717194 177.19124704717194 0 0 0 44.914421884125254,10.220649592857967 L 44.772069465045476,11.210465630706466 A 178.19124704717194 178.19124704717194 0 0 1 24.018736134675446,6.953439040707552 Z M 91.2316212092626,11.772264333798972 L 91.11324504310542,10.77929551088161 A 177.19124704717194 177.19124704717194 0 0 0 111.84643850906288,7.046414629492434 L 111.1402792377151,4.130709040189975 L 118.7674447626599,5.88466059456472 L 112.78798420419324,10.93402208189571 L 112.08182493284546,8.018316492593252 A 178.19124704717194 178.19124704717194 0 0 1 91.2316212092626,11.772264333798972"/><text text-anchor="middle" pointer-events="none" font-size="8px" fill="#000000" x="67.98950156169349" y="15.512168824575014" transform="rotate(180 67.98950156169349 12.512168824575014)" font-family="sans-serif">twowheeler</text></g><g class="relationship" transform="translate(155.43896220948247 287.09300837578337) rotate(257.12271988884635)"><path class="outline" fill="#A5ABB6" stroke="none" d="M 25 0.5 L 41.17396833571901 0.5 L 41.17396833571901 -0.5 L 25 -0.5 Z M 63.18568708571901 0.5 L 79.35965542143802 0.5 L 79.35965542143802 3.5 L 86.35965542143802 0 L 79.35965542143802 -3.5 L 79.35965542143802 -0.5 L 63.18568708571901 -0.5 Z"/><text text-anchor="middle" pointer-events="none" font-size="8px" fill="#000000" x="52.17982771071901" y="3" transform="rotate(180 52.17982771071901 0)" font-family="sans-serif">road</text></g><g class="relationship" transform="translate(155.43896220948247 287.09300837578337) rotate(257.12271988884635)"><path class="outline" fill="#A5ABB6" stroke="none" d="M 21.40063509461097,-12.933012701892217 L 21.90063509461097,-12.06698729810778 A 63.97540000754027 63.97540000754027 0 0 1 42.450807781450884,-19.607361836884706 L 42.27202769855055,-20.591250896666423 A 64.97540000754027 64.97540000754027 0 0 0 21.40063509461097,-12.933012701892217 Z M 61.67635575430471,-21.16963692860429 L 61.556494689116654,-20.176846253259285 A 63.97540000754027 63.97540000754027 0 0 1 82.51929755584926,-13.873851598772886 L 81.17670513185064,-11.19104605549892 L 89.00294256082162,-11.188270199988448 L 84.30942078784742,-17.450925656471508 L 82.96682836384879,-14.768120113197542 A 64.97540000754027 64.97540000754027 0 0 0 61.67635575430471,-21.16963692860429"/><text text-anchor="middle" pointer-events="none" font-size="8px" fill="#000000" x="51.96736594172534" y="-18.1094428135206" transform="rotate(180 51.96736594172534 -21.1094428135206)" font-family="sans-serif">trek</text></g><g class="relationship" transform="translate(130.62095187948347 178.5340878816965) rotate(379.48119381322215)"><path class="outline" fill="#A5ABB6" stroke="none" d="M 25 0.5 L 44.57053247862606 0.5 L 44.57053247862606 -0.5 L 25 -0.5 Z M 63.90646997862606 0.5 L 83.47700245725213 0.5 L 83.47700245725213 3.5 L 90.47700245725213 0 L 83.47700245725213 -3.5 L 83.47700245725213 -0.5 L 63.90646997862606 -0.5 Z"/><text text-anchor="middle" pointer-events="none" font-size="8px" fill="#000000" x="54.23850122862606" y="3" font-family="sans-serif">trek</text></g><g class="relationship" transform="translate(100.74860524231141 38.622563504486905) rotate(237.45930664125842)"><path class="outline" fill="#A5ABB6" stroke="none" d="M 24.018736134675446,-6.953439040707552 L 24.277555179777966,-5.987513214418485 A 139.66015718136936 139.66015718136936 0 0 1 35.47541009992142,-8.499821411211713 L 35.29677036398007,-9.483735962757123 A 140.66015718136936 140.66015718136936 0 0 0 24.018736134675446,-6.953439040707552 Z M 81.70968289307237,-10.126481073253899 L 81.5583577444356,-9.137997032214258 A 139.66015718136936 139.66015718136936 0 0 1 92.82148808583479,-6.9367378014764745 L 92.12557254973595,-4.018570300009797 L 99.74653151194018,-5.799296134156967 L 93.7493754672999,-10.827627803432044 L 93.05345993120106,-7.909460301965367 A 140.66015718136936 140.66015718136936 0 0 0 81.70968289307237,-10.126481073253899"/><text text-anchor="middle" pointer-events="none" font-size="8px" fill="#000000" x="58.48345426499651" y="-8.232879751129218" transform="rotate(180 58.48345426499651 -11.232879751129218)" font-family="sans-serif">twowheeler</text></g><g class="relationship" transform="translate(34.01444903024922 -65.96508340012763) rotate(471.25946227492904)"><path class="outline" fill="#A5ABB6" stroke="none" d="M 21.40063509461097,12.933012701892217 L 21.90063509461097,12.06698729810778 A 44.67166884471557 44.67166884471557 0 0 0 31.93230930820672,16.32393695650601 L 31.656873880631075,17.28525653148418 A 45.67166884471557 45.67166884471557 0 0 1 21.40063509461097,12.933012701892217 Z M 53.67889591245252,18.065105497102337 L 53.47215009750128,17.086710807828034 A 44.67166884471557 44.67166884471557 0 0 0 63.77981442996115,13.550022536126226 L 62.46734869372948,10.85235063405625 L 70.2931264908297,10.937214468597311 L 65.52976874493672,17.14691840555286 L 64.21730300870504,14.449246503482884 A 45.67166884471557 45.67166884471557 0 0 1 53.67889591245252,18.065105497102337"/><text text-anchor="middle" pointer-events="none" font-size="8px" fill="#000000" x="42.63784192115217" y="21.523559476150055" transform="rotate(180 42.63784192115217 18.523559476150055)" font-family="sans-serif">road</text></g><g class="relationship" transform="translate(34.01444903024922 -65.96508340012763) rotate(471.25946227492904)"><path class="outline" fill="#A5ABB6" stroke="none" d="M 25 0.5 L 33.2188940873731 0.5 L 33.2188940873731 -0.5 L 25 -0.5 Z M 52.5548315873731 0.5 L 60.7737256747462 0.5 L 60.7737256747462 3.5 L 67.7737256747462 0 L 60.7737256747462 -3.5 L 60.7737256747462 -0.5 L 52.5548315873731 -0.5 Z"/><text text-anchor="middle" pointer-events="none" font-size="8px" fill="#000000" x="42.8868628373731" y="3" transform="rotate(180 42.8868628373731 0)" font-family="sans-serif">trek</text></g><g class="relationship" transform="translate(34.01444903024922 -65.96508340012763) rotate(471.25946227492904)"><path class="outline" fill="#A5ABB6" stroke="none" d="M 21.40063509461097,-12.933012701892217 L 21.90063509461097,-12.06698729810778 A 44.67166884471557 44.67166884471557 0 0 1 23.188970304516612,-12.782735063635705 L 22.717810400336273,-13.664782876791413 A 45.67166884471557 45.67166884471557 0 0 0 21.40063509461097,-12.933012701892217 Z M 62.85166479024153,-15.086012261950131 L 62.44407742275197,-14.172846046049145 A 44.67166884471557 44.67166884471557 0 0 1 63.77981442996115,-13.550022536126226 L 62.46734869372948,-10.85235063405625 L 70.2931264908297,-10.937214468597311 L 65.52976874493672,-17.14691840555286 L 64.21730300870504,-14.449246503482884 A 45.67166884471557 45.67166884471557 0 0 0 62.85166479024153,-15.086012261950131"/><text text-anchor="middle" pointer-events="none" font-size="8px" fill="#000000" x="42.637841921152166" y="-15.523559476150055" transform="rotate(180 42.637841921152166 -18.523559476150055)" font-family="sans-serif">twowhe…</text></g><g class="relationship" transform="translate(100.74860524231141 38.622563504486905) rotate(237.45930664125842)"><path class="outline" fill="#A5ABB6" stroke="none" d="M 24.018736134675446,6.953439040707552 L 24.277555179777966,5.987513214418485 A 139.66015718136936 139.66015718136936 0 0 0 48.87005727921604,10.267552269649485 L 48.78732640840578,11.264124195310131 A 140.66015718136936 140.66015718136936 0 0 1 24.018736134675446,6.953439040707552 Z M 68.17499861104722,11.532612657531729 L 68.11989604990956,10.534131957790322 A 139.66015718136936 139.66015718136936 0 0 0 92.82148808583479,6.9367378014764745 L 92.12557254973595,4.018570300009797 L 99.74653151194018,5.799296134156967 L 93.7493754672999,10.827627803432044 L 93.05345993120106,7.909460301965367 A 140.66015718136936 140.66015718136936 0 0 1 68.17499861104722,11.532612657531729"/><text text-anchor="middle" pointer-events="none" font-size="8px" fill="#000000" x="58.48345426499654" y="14.232879751129218" transform="rotate(180 58.48345426499654 11.232879751129218)" font-family="sans-serif">trek</text></g><g class="relationship" transform="translate(34.01444903024922 -65.96508340012763) rotate(496.74849713869577)"><path class="outline" fill="#A5ABB6" stroke="none" d="M 25 0.5 L 51.75696110089788 0.5 L 51.75696110089788 -0.5 L 25 -0.5 Z M 71.09289860089788 0.5 L 97.84985970179576 0.5 L 97.84985970179576 3.5 L 104.84985970179576 0 L 97.84985970179576 -3.5 L 97.84985970179576 -0.5 L 71.09289860089788 -0.5 Z"/><text text-anchor="middle" pointer-events="none" font-size="8px" fill="#000000" x="61.42492985089788" y="3" transform="rotate(180 61.42492985089788 0)" font-family="sans-serif">trek</text></g><g class="relationship" transform="translate(-60.562085491059456 23.008312525372205) rotate(409.2448930824618)"><path class="outline" fill="#A5ABB6" stroke="none" d="M 25 0.5 L 49.64009424935362 0.5 L 49.64009424935362 -0.5 L 25 -0.5 Z M 68.97603174935362 0.5 L 93.61612599870725 0.5 L 93.61612599870725 3.5 L 100.61612599870725 0 L 93.61612599870725 -3.5 L 93.61612599870725 -0.5 L 68.97603174935362 -0.5 Z"/><text text-anchor="middle" pointer-events="none" font-size="8px" fill="#000000" x="59.30806299935362" y="3" font-family="sans-serif">trek</text></g></g><g class="layer nodes"><g class="node" transform="translate(155.43896220948247,287.09300837578337)"><circle class="outline" cx="0" cy="0" r="25" fill="#DE9BF9" stroke="#BF85D6" stroke-width="2px"/><text text-anchor="middle" pointer-events="none" font-family="sans-serif" dy="1.5625" font-size="25" fill="#FFFFFF"/><text text-anchor="middle" pointer-events="none" y="5" font-size="10px" fill="#FFFFFF" font-family="sans-serif"> Darjeeling</text></g><g class="node" transform="translate(239.48701208099772,217.04537236705858)"><circle class="outline" cx="0" cy="0" r="25" fill="#FB95AF" stroke="#E0849B" stroke-width="2px"/><text text-anchor="middle" pointer-events="none" font-family="sans-serif" dy="1.5625" font-size="25" fill="#FFFFFF"/><text text-anchor="middle" pointer-events="none" y="5" font-size="10px" fill="#FFFFFF" font-family="sans-serif"> Tumbling</text></g><g class="node" transform="translate(273.4399967597075,107.92743545561663)"><circle class="outline" cx="0" cy="0" r="25" fill="#FB95AF" stroke="#E0849B" stroke-width="2px"/><text text-anchor="middle" pointer-events="none" font-family="sans-serif" dy="1.5625" font-size="25" fill="#FFFFFF"/><text text-anchor="middle" pointer-events="none" y="5" font-size="10px" fill="#FFFFFF" font-family="sans-serif"> Gairibus</text></g><g class="node" transform="translate(158.40071538849844,88.04411811549119)"><circle class="outline" cx="0" cy="0" r="25" fill="#FB95AF" stroke="#E0849B" stroke-width="2px"/><text text-anchor="middle" pointer-events="none" font-family="sans-serif" dy="1.5625" font-size="25" fill="#FFFFFF"/><text text-anchor="middle" pointer-events="none" y="5" font-size="10px" fill="#FFFFFF" font-family="sans-serif"> BhikeBh…</text></g><g class="node" transform="translate(21.44354755860123,118.1633820647693)"><circle class="outline" cx="0" cy="0" r="25" fill="#FFD86E" stroke="#EDBA39" stroke-width="2px"/><text text-anchor="middle" pointer-events="none" font-family="sans-serif" dy="1.5625" font-size="25" fill="#604A0E"/><text text-anchor="middle" pointer-events="none" y="5" font-size="10px" fill="#604A0E" font-family="sans-serif"> Sandak…</text></g><g class="node" transform="translate(130.62095187948347,178.5340878816965)"><circle class="outline" cx="0" cy="0" r="25" fill="#DE9BF9" stroke="#BF85D6" stroke-width="2px"/><text text-anchor="middle" pointer-events="none" font-family="sans-serif" dy="1.5625" font-size="25" fill="#FFFFFF"/><text text-anchor="middle" pointer-events="none" y="5" font-size="10px" fill="#FFFFFF" font-family="sans-serif"> Rimbik</text></g><g class="node" transform="translate(100.74860524231141,38.622563504486905)"><circle class="outline" cx="0" cy="0" r="25" fill="#FB95AF" stroke="#E0849B" stroke-width="2px"/><text text-anchor="middle" pointer-events="none" font-family="sans-serif" dy="1.5625" font-size="25" fill="#FFFFFF"/><text text-anchor="middle" pointer-events="none" y="5" font-size="10px" fill="#FFFFFF" font-family="sans-serif"> Sirikhola</text></g><g class="node" transform="translate(0.37544270286297404,20.495204760849095)"><circle class="outline" cx="0" cy="0" r="25" fill="#FB95AF" stroke="#E0849B" stroke-width="2px"/><text text-anchor="middle" pointer-events="none" font-family="sans-serif" dy="1.5625" font-size="25" fill="#FFFFFF"/><text text-anchor="middle" pointer-events="none" y="5" font-size="10px" fill="#FFFFFF" font-family="sans-serif"> Gurdum</text></g><g class="node" transform="translate(34.01444903024922,-65.96508340012763)"><circle class="outline" cx="0" cy="0" r="25" fill="#FB95AF" stroke="#E0849B" stroke-width="2px"/><text text-anchor="middle" pointer-events="none" font-family="sans-serif" dy="1.5625" font-size="25" fill="#FFFFFF"/><text text-anchor="middle" pointer-events="none" y="5" font-size="10px" fill="#FFFFFF" font-family="sans-serif"> Rammam</text></g><g class="node" transform="translate(-60.562085491059456,23.008312525372205)"><circle class="outline" cx="0" cy="0" r="25" fill="#FFD86E" stroke="#EDBA39" stroke-width="2px"/><text text-anchor="middle" pointer-events="none" font-family="sans-serif" dy="1.5625" font-size="25" fill="#604A0E"/><text text-anchor="middle" pointer-events="none" y="5" font-size="10px" fill="#604A0E" font-family="sans-serif"> Sabargr…</text></g></g></svg>