<svg xmlns="http://www.w3.org/2000/svg" width="872.285400390625" height="534.9381103515625" viewBox="-595.5584106445312 -513.35693359375 872.285400390625 534.9381103515625"><title>Neo4j Graph Visualization</title><desc>Created using Neo4j (http://www.neo4j.com/)</desc><g class="layer relationships"><g class="relationship" transform="translate(-398.60421571500433 -484.35692084116647) rotate(405.32982512377527)"><path class="outline" fill="#A5ABB6" stroke="none" d="M 25 0.5 L 103.78009256931128 0.5 L 103.78009256931128 -0.5 L 25 -0.5 Z M 150.67071756931128 0.5 L 229.45081013862256 0.5 L 229.45081013862256 3.5 L 236.45081013862256 0 L 229.45081013862256 -3.5 L 229.45081013862256 -0.5 L 150.67071756931128 -0.5 Z"/><text text-anchor="middle" pointer-events="none" font-size="8px" fill="#000000" x="127.22540506931128" y="3" font-family="sans-serif">DIRECTED</text></g><g class="relationship" transform="translate(247.72700791095855 -78.36938216869542) rotate(533.6617467230392)"><path class="outline" fill="#A5ABB6" stroke="none" d="M 25 0.5 L 263.44965418467905 0.5 L 263.44965418467905 -0.5 L 25 -0.5 Z M 310.34027918467905 0.5 L 548.7899333693581 0.5 L 548.7899333693581 3.5 L 555.7899333693581 0 L 548.7899333693581 -3.5 L 548.7899333693581 -0.5 L 310.34027918467905 -0.5 Z"/><text text-anchor="middle" pointer-events="none" font-size="8px" fill="#000000" x="286.89496668467905" y="3" transform="rotate(180 286.89496668467905 0)" font-family="sans-serif">DIRECTED</text></g><g class="relationship" transform="translate(200.95190498746786 -313.91056485727194) rotate(510.53792426655457)"><path class="outline" fill="#A5ABB6" stroke="none" d="M 25 0.5 L 277.6808740194151 0.5 L 277.6808740194151 -0.5 L 25 -0.5 Z M 324.5714990194151 0.5 L 577.2523730388302 0.5 L 577.2523730388302 3.5 L 584.2523730388302 0 L 577.2523730388302 -3.5 L 577.2523730388302 -0.5 L 324.5714990194151 -0.5 Z"/><text text-anchor="middle" pointer-events="none" font-size="8px" fill="#000000" x="301.1261865194151" y="3" transform="rotate(180 301.1261865194151 0)" font-family="sans-serif">DIRECTED</text></g><g class="relationship" transform="translate(-566.558436381416 -7.418803462250381) rotate(358.34896673041555)"><path class="outline" fill="#A5ABB6" stroke="none" d="M 25 0.5 L 91.62671614521679 0.5 L 91.62671614521679 -0.5 L 25 -0.5 Z M 138.5173411452168 0.5 L 205.14405729043358 0.5 L 205.14405729043358 3.5 L 212.14405729043358 0 L 205.14405729043358 -3.5 L 205.14405729043358 -0.5 L 138.5173411452168 -0.5 Z"/><text text-anchor="middle" pointer-events="none" font-size="8px" fill="#000000" x="115.07202864521679" y="3" font-family="sans-serif">DIRECTED</text></g><g class="relationship" transform="translate(200.95190498746786 -313.91056485727194) rotate(514.1434526503281)"><path class="outline" fill="#A5ABB6" stroke="none" d="M 25 0.5 L 222.53703419901044 0.5 L 222.53703419901044 -0.5 L 25 -0.5 Z M 269.42765919901046 0.5 L 466.96469339802087 0.5 L 466.96469339802087 3.5 L 473.96469339802087 0 L 466.96469339802087 -3.5 L 466.96469339802087 -0.5 L 269.42765919901046 -0.5 Z"/><text text-anchor="middle" pointer-events="none" font-size="8px" fill="#000000" x="245.98234669901044" y="3" transform="rotate(180 245.98234669901044 0)" font-family="sans-serif">DIRECTED</text></g><g class="relationship" transform="translate(247.72700791095855 -78.36938216869542) rotate(182.07152353564925)"><path class="outline" fill="#A5ABB6" stroke="none" d="M 25 0.5 L 221.11071428027248 0.5 L 221.11071428027248 -0.5 L 25 -0.5 Z M 268.0013392802725 0.5 L 464.11205356054495 0.5 L 464.11205356054495 3.5 L 471.11205356054495 0 L 464.11205356054495 -3.5 L 464.11205356054495 -0.5 L 268.0013392802725 -0.5 Z"/><text text-anchor="middle" pointer-events="none" font-size="8px" fill="#000000" x="244.55602678027248" y="3" transform="rotate(180 244.55602678027248 0)" font-family="sans-serif">DIRECTED</text></g><g class="relationship" transform="translate(200.95190498746786 -313.91056485727194) rotate(521.9662545570106)"><path class="outline" fill="#A5ABB6" stroke="none" d="M 25 0.5 L 201.51514237955863 0.5 L 201.51514237955863 -0.5 L 25 -0.5 Z M 248.40576737955863 0.5 L 424.92090975911725 0.5 L 424.92090975911725 3.5 L 431.92090975911725 0 L 424.92090975911725 -3.5 L 424.92090975911725 -0.5 L 248.40576737955863 -0.5 Z"/><text text-anchor="middle" pointer-events="none" font-size="8px" fill="#000000" x="224.96045487955863" y="3" transform="rotate(180 224.96045487955863 0)" font-family="sans-serif">DIRECTED</text></g><g class="relationship" transform="translate(247.72700791095855 -78.36938216869542) rotate(191.0623400986662)"><path class="outline" fill="#A5ABB6" stroke="none" d="M 25 0.5 L 218.23512448754573 0.5 L 218.23512448754573 -0.5 L 25 -0.5 Z M 265.1257494875457 0.5 L 458.36087397509147 0.5 L 458.36087397509147 3.5 L 465.36087397509147 0 L 458.36087397509147 -3.5 L 458.36087397509147 -0.5 L 265.1257494875457 -0.5 Z"/><text text-anchor="middle" pointer-events="none" font-size="8px" fill="#000000" x="241.68043698754573" y="3" transform="rotate(180 241.68043698754573 0)" font-family="sans-serif">DIRECTED</text></g><g class="relationship" transform="translate(200.95190498746786 -313.91056485727194) rotate(200.60479919501802)"><path class="outline" fill="#A5ABB6" stroke="none" d="M 25 0.5 L 201.61832000687374 0.5 L 201.61832000687374 -0.5 L 25 -0.5 Z M 248.50894500687374 0.5 L 425.1272650137475 0.5 L 425.1272650137475 3.5 L 432.1272650137475 0 L 425.1272650137475 -3.5 L 425.1272650137475 -0.5 L 248.50894500687374 -0.5 Z"/><text text-anchor="middle" pointer-events="none" font-size="8px" fill="#000000" x="225.06363250687374" y="3" transform="rotate(180 225.06363250687374 0)" font-family="sans-serif">DIRECTED</text></g><g class="relationship" transform="translate(247.72700791095855 -78.36938216869542) rotate(219.86702762399796)"><path class="outline" fill="#A5ABB6" stroke="none" d="M 25 0.5 L 282.26565635894644 0.5 L 282.26565635894644 -0.5 L 25 -0.5 Z M 329.15628135894644 0.5 L 586.4219377178929 0.5 L 586.4219377178929 3.5 L 593.4219377178929 0 L 586.4219377178929 -3.5 L 586.4219377178929 -0.5 L 329.15628135894644 -0.5 Z"/><text text-anchor="middle" pointer-events="none" font-size="8px" fill="#000000" x="305.71096885894644" y="3" transform="rotate(180 305.71096885894644 0)" font-family="sans-serif">DIRECTED</text></g><g class="relationship" transform="translate(247.72700791095855 -78.36938216869542) rotate(205.44342846389304)"><path class="outline" fill="#A5ABB6" stroke="none" d="M 24.018736134675446,6.953439040707552 L 24.277555179777966,5.987513214418485 A 894.1950912367637 894.1950912367637 0 0 0 234.71581400714825,36.20993072362546 L 234.6923331571328,37.209655010457936 A 895.1950912367637 895.1950912367637 0 0 1 24.018736134675446,6.953439040707552 Z M 270.48316026447975,37.33460261128414 L 270.4666600785649,36.334738748618406 A 894.1950912367637 894.1950912367637 0 0 0 481.11080298927925,7.5823413562869195 L 480.3545971108221,4.679213272755824 L 488.0108028305946,6.301715653808877 L 482.1190774938887,11.453178800995047 L 481.3628716154316,8.550050717463952 A 895.1950912367637 895.1950912367637 0 0 1 270.48316026447975,37.33460261128414"/><text text-anchor="middle" pointer-events="none" font-size="8px" fill="#000000" x="252.58886771762405" y="39.95102011461847" transform="rotate(180 252.58886771762405 36.95102011461847)" font-family="sans-serif">WROTE</text></g><g class="relationship" transform="translate(200.95190498746786 -313.91056485727194) rotate(537.86647516645)"><path class="outline" fill="#A5ABB6" stroke="none" d="M 24.018736134675446,6.953439040707552 L 24.277555179777966,5.987513214418485 A 708.0700277536124 708.0700277536124 0 0 0 186.63438174538956,29.80574295791257 L 186.60485757254804,30.805307024502554 A 709.0700277536124 709.0700277536124 0 0 1 24.018736134675446,6.953439040707552 Z M 222.3994079736367,30.95868978811052 L 222.3784511657569,29.958909406124803 A 708.0700277536124 708.0700277536124 0 0 0 384.9334380847451,7.532955059938162 L 384.18184346485054,4.628629746316151 L 391.83546291984555,6.263288499121259 L 385.9355642446045,11.405388811434179 L 385.18396962470996,8.501063497812167 A 709.0700277536124 709.0700277536124 0 0 1 222.3994079736367,30.95868978811052"/><text text-anchor="middle" pointer-events="none" font-size="8px" fill="#000000" x="204.503307269803" y="33.60790905809256" transform="rotate(180 204.503307269803 30.60790905809256)" font-family="sans-serif">WROTE</text></g><g class="relationship" transform="translate(-385.4149087512936 -197.38074899656314) rotate(329.3654967519956)"><path class="outline" fill="#A5ABB6" stroke="none" d="M 25 0.5 L 72.86451926062573 0.5 L 72.86451926062573 -0.5 L 25 -0.5 Z M 118.42701926062573 0.5 L 166.29153852125145 0.5 L 166.29153852125145 3.5 L 173.29153852125145 0 L 166.29153852125145 -3.5 L 166.29153852125145 -0.5 L 118.42701926062573 -0.5 Z"/><text text-anchor="middle" pointer-events="none" font-size="8px" fill="#000000" x="95.64576926062573" y="3" font-family="sans-serif">ACTED_IN</text></g><g class="relationship" transform="translate(200.95190498746786 -313.91056485727194) rotate(537.86647516645)"><path class="outline" fill="#A5ABB6" stroke="none" d="M 24.018736134675446,-6.953439040707552 L 24.277555179777966,-5.987513214418485 A 708.0700277536124 708.0700277536124 0 0 1 178.64111384738138,-29.52445259720605 L 178.60030086469803,-30.52361940031983 A 709.0700277536124 709.0700277536124 0 0 0 24.018736134675446,-6.953439040707552 Z M 230.40608479565165,-30.74561169303388 L 230.3738361879374,-29.7461318146469 A 708.0700277536124 708.0700277536124 0 0 1 384.9334380847451,-7.532955059938162 L 384.18184346485054,-4.628629746316151 L 391.83546291984555,-6.263288499121259 L 385.9355642446045,-11.405388811434179 L 385.18396962470996,-8.501063497812167 A 709.0700277536124 709.0700277536124 0 0 0 230.40608479565165,-30.74561169303388"/><text text-anchor="middle" pointer-events="none" font-size="8px" fill="#000000" x="204.50330726980266" y="-27.60790905809256" transform="rotate(180 204.50330726980266 -30.60790905809256)" font-family="sans-serif">PRODUCED</text></g><g class="relationship" transform="translate(247.72700791095855 -78.36938216869542) rotate(205.44342846389304)"><path class="outline" fill="#A5ABB6" stroke="none" d="M 24.018736134675446,-6.953439040707552 L 24.277555179777966,-5.987513214418485 A 894.1950912367637 894.1950912367637 0 0 1 226.7195331254452,-35.986328536206656 L 226.68710984109964,-36.98580276330415 A 895.1950912367637 895.1950912367637 0 0 0 24.018736134675446,-6.953439040707552 Z M 278.4897513967356,-37.16664842410512 L 278.46430724853747,-36.16697217885246 A 894.1950912367637 894.1950912367637 0 0 1 481.11080298927925,-7.5823413562869195 L 480.3545971108221,-4.679213272755824 L 488.0108028305946,-6.301715653808877 L 482.1190774938887,-11.453178800995047 L 481.3628716154316,-8.550050717463952 A 895.1950912367637 895.1950912367637 0 0 0 278.4897513967356,-37.16664842410512"/><text text-anchor="middle" pointer-events="none" font-size="8px" fill="#000000" x="252.5888677176238" y="-33.95102011461847" transform="rotate(180 252.5888677176238 -36.95102011461847)" font-family="sans-serif">PRODUCED</text></g><g class="relationship" transform="translate(-385.4149087512936 -197.38074899656314) rotate(433.02466266383055)"><path class="outline" fill="#A5ABB6" stroke="none" d="M 25 0.5 L 69.45458897488864 0.5 L 69.45458897488864 -0.5 L 25 -0.5 Z M 115.01708897488864 0.5 L 159.47167794977727 0.5 L 159.47167794977727 3.5 L 166.47167794977727 0 L 159.47167794977727 -3.5 L 159.47167794977727 -0.5 L 115.01708897488864 -0.5 Z"/><text text-anchor="middle" pointer-events="none" font-size="8px" fill="#000000" x="92.23583897488864" y="3" font-family="sans-serif">ACTED_IN</text></g><g class="relationship" transform="translate(-385.4149087512936 -197.38074899656314) rotate(396.34922219092294)"><path class="outline" fill="#A5ABB6" stroke="none" d="M 25 0.5 L 58.987420096734155 0.5 L 58.987420096734155 -0.5 L 25 -0.5 Z M 104.54992009673416 0.5 L 138.5373401934683 0.5 L 138.5373401934683 3.5 L 145.5373401934683 0 L 138.5373401934683 -3.5 L 138.5373401934683 -0.5 L 104.54992009673416 -0.5 Z"/><text text-anchor="middle" pointer-events="none" font-size="8px" fill="#000000" x="81.76867009673416" y="3" font-family="sans-serif">ACTED_IN</text></g><g class="relationship" transform="translate(-385.4149087512936 -197.38074899656314) rotate(369.3180312980985)"><path class="outline" fill="#A5ABB6" stroke="none" d="M 25 0.5 L 50.680495215754846 0.5 L 50.680495215754846 -0.5 L 25 -0.5 Z M 96.24299521575485 0.5 L 121.92349043150969 0.5 L 121.92349043150969 3.5 L 128.9234904315097 0 L 121.92349043150969 -3.5 L 121.92349043150969 -0.5 L 96.24299521575485 -0.5 Z"/><text text-anchor="middle" pointer-events="none" font-size="8px" fill="#000000" x="73.46174521575485" y="3" font-family="sans-serif">ACTED_IN</text></g><g class="relationship" transform="translate(-385.4149087512936 -197.38074899656314) rotate(299.7396626098013)"><path class="outline" fill="#A5ABB6" stroke="none" d="M 25 0.5 L 133.4595055564714 0.5 L 133.4595055564714 -0.5 L 25 -0.5 Z M 179.0220055564714 0.5 L 287.4815111129428 0.5 L 287.4815111129428 3.5 L 294.4815111129428 0 L 287.4815111129428 -3.5 L 287.4815111129428 -0.5 L 179.0220055564714 -0.5 Z"/><text text-anchor="middle" pointer-events="none" font-size="8px" fill="#000000" x="156.2407555564714" y="3" font-family="sans-serif">ACTED_IN</text></g></g><g class="layer nodes"><g class="node" transform="translate(-398.60421571500433,-484.35692084116647)"><circle class="outline" cx="0" cy="0" r="25" fill="#6DCE9E" stroke="#60B58B" stroke-width="2px"/><text text-anchor="middle" pointer-events="none" font-family="sans-serif" dy="1.5625" font-size="25" fill="#FFFFFF"/><text text-anchor="middle" pointer-events="none" font-family="sans-serif" dy="1.5625" font-size="25" fill="#FFFFFF"/><text text-anchor="middle" pointer-events="none" y="0" font-size="10px" fill="#FFFFFF" font-family="sans-serif"> James</text><text text-anchor="middle" pointer-events="none" y="10" font-size="10px" fill="#FFFFFF" font-family="sans-serif"> Marshall</text></g><g class="node" transform="translate(-214.79786364217716,-298.4221175906132)"><circle class="outline" cx="0" cy="0" r="25" fill="#68BDF6" stroke="#5CA8DB" stroke-width="2px"/><text text-anchor="middle" pointer-events="none" font-family="sans-serif" dy="1.5625" font-size="25" fill="#FFFFFF"/><text text-anchor="middle" pointer-events="none" font-family="sans-serif" dy="1.5625" font-size="25" fill="#FFFFFF"/><text text-anchor="middle" pointer-events="none" y="0" font-size="10px" fill="#FFFFFF" font-family="sans-serif"> V for</text><text text-anchor="middle" pointer-events="none" y="10" font-size="10px" fill="#FFFFFF" font-family="sans-serif"> Vendetta</text></g><g class="node" transform="translate(-385.4149087512936,-197.38074899656314)"><circle class="outline" cx="0" cy="0" r="25" fill="#6DCE9E" stroke="#60B58B" stroke-width="2px"/><text text-anchor="middle" pointer-events="none" font-family="sans-serif" dy="1.5625" font-size="25" fill="#FFFFFF"/><text text-anchor="middle" pointer-events="none" font-family="sans-serif" dy="1.5625" font-size="25" fill="#FFFFFF"/><text text-anchor="middle" pointer-events="none" y="0" font-size="10px" fill="#FFFFFF" font-family="sans-serif"> Hugo</text><text text-anchor="middle" pointer-events="none" y="10" font-size="10px" fill="#FFFFFF" font-family="sans-serif"> Weaving</text></g><g class="node" transform="translate(247.72700791095855,-78.36938216869542)"><circle class="outline" cx="0" cy="0" r="25" fill="#6DCE9E" stroke="#60B58B" stroke-width="2px"/><text text-anchor="middle" pointer-events="none" font-family="sans-serif" dy="1.5625" font-size="25" fill="#FFFFFF"/><text text-anchor="middle" pointer-events="none" font-family="sans-serif" dy="1.5625" font-size="25" fill="#FFFFFF"/><text text-anchor="middle" pointer-events="none" y="0" font-size="10px" fill="#FFFFFF" font-family="sans-serif"> Lilly</text><text text-anchor="middle" pointer-events="none" y="10" font-size="10px" fill="#FFFFFF" font-family="sans-serif"> Wacho…</text></g><g class="node" transform="translate(-329.5128297398758,-14.25139302351215)"><circle class="outline" cx="0" cy="0" r="25" fill="#68BDF6" stroke="#5CA8DB" stroke-width="2px"/><text text-anchor="middle" pointer-events="none" font-family="sans-serif" dy="1.5625" font-size="25" fill="#FFFFFF"/><text text-anchor="middle" pointer-events="none" font-family="sans-serif" dy="1.5625" font-size="25" fill="#FFFFFF"/><text text-anchor="middle" pointer-events="none" y="0" font-size="10px" fill="#FFFFFF" font-family="sans-serif"> Cloud</text><text text-anchor="middle" pointer-events="none" y="10" font-size="10px" fill="#FFFFFF" font-family="sans-serif"> Atlas</text></g><g class="node" transform="translate(200.95190498746786,-313.91056485727194)"><circle class="outline" cx="0" cy="0" r="25" fill="#6DCE9E" stroke="#60B58B" stroke-width="2px"/><text text-anchor="middle" pointer-events="none" font-family="sans-serif" dy="1.5625" font-size="25" fill="#FFFFFF"/><text text-anchor="middle" pointer-events="none" font-family="sans-serif" dy="1.5625" font-size="25" fill="#FFFFFF"/><text text-anchor="middle" pointer-events="none" y="0" font-size="10px" fill="#FFFFFF" font-family="sans-serif"> Lana</text><text text-anchor="middle" pointer-events="none" y="10" font-size="10px" fill="#FFFFFF" font-family="sans-serif"> Wacho…</text></g><g class="node" transform="translate(-566.558436381416,-7.418803462250381)"><circle class="outline" cx="0" cy="0" r="25" fill="#6DCE9E" stroke="#60B58B" stroke-width="2px"/><text text-anchor="middle" pointer-events="none" font-family="sans-serif" dy="1.5625" font-size="25" fill="#FFFFFF"/><text text-anchor="middle" pointer-events="none" font-family="sans-serif" dy="1.5625" font-size="25" fill="#FFFFFF"/><text text-anchor="middle" pointer-events="none" y="0" font-size="10px" fill="#FFFFFF" font-family="sans-serif"> Tom</text><text text-anchor="middle" pointer-events="none" y="10" font-size="10px" fill="#FFFFFF" font-family="sans-serif"> Tykwer</text></g><g class="node" transform="translate(-248.06082777585206,-96.30235941869842)"><circle class="outline" cx="0" cy="0" r="25" fill="#68BDF6" stroke="#5CA8DB" stroke-width="2px"/><text text-anchor="middle" pointer-events="none" font-family="sans-serif" dy="1.5625" font-size="25" fill="#FFFFFF"/><text text-anchor="middle" pointer-events="none" font-family="sans-serif" dy="1.5625" font-size="25" fill="#FFFFFF"/><text text-anchor="middle" pointer-events="none" font-family="sans-serif" dy="1.5625" font-size="25" fill="#FFFFFF"/><text text-anchor="middle" pointer-events="none" y="-5" font-size="10px" fill="#FFFFFF" font-family="sans-serif"> The</text><text text-anchor="middle" pointer-events="none" y="5" font-size="10px" fill="#FFFFFF" font-family="sans-serif"> Matrix</text><text text-anchor="middle" pointer-events="none" y="15" font-size="10px" fill="#FFFFFF" font-family="sans-serif"> Revol…</text></g><g class="node" transform="translate(-233.52246803316194,-172.4583221623256)"><circle class="outline" cx="0" cy="0" r="25" fill="#68BDF6" stroke="#5CA8DB" stroke-width="2px"/><text text-anchor="middle" pointer-events="none" font-family="sans-serif" dy="1.5625" font-size="25" fill="#FFFFFF"/><text text-anchor="middle" pointer-events="none" font-family="sans-serif" dy="1.5625" font-size="25" fill="#FFFFFF"/><text text-anchor="middle" pointer-events="none" font-family="sans-serif" dy="1.5625" font-size="25" fill="#FFFFFF"/><text text-anchor="middle" pointer-events="none" y="-5" font-size="10px" fill="#FFFFFF" font-family="sans-serif"> The</text><text text-anchor="middle" pointer-events="none" y="5" font-size="10px" fill="#FFFFFF" font-family="sans-serif"> Matrix</text><text text-anchor="middle" pointer-events="none" y="15" font-size="10px" fill="#FFFFFF" font-family="sans-serif"> Reloa…</text></g><g class="node" transform="translate(-226.93295703394026,-474.7828162615133)"><circle class="outline" cx="0" cy="0" r="25" fill="#68BDF6" stroke="#5CA8DB" stroke-width="2px"/><text text-anchor="middle" pointer-events="none" font-family="sans-serif" dy="1.5625" font-size="25" fill="#FFFFFF"/><text text-anchor="middle" pointer-events="none" font-family="sans-serif" dy="1.5625" font-size="25" fill="#FFFFFF"/><text text-anchor="middle" pointer-events="none" y="0" font-size="10px" fill="#FFFFFF" font-family="sans-serif"> The</text><text text-anchor="middle" pointer-events="none" y="10" font-size="10px" fill="#FFFFFF" font-family="sans-serif"> Matrix</text></g></g></svg>