<svg xmlns="http://www.w3.org/2000/svg" width="351.248046875" height="355.7966613769531" viewBox="-89.46308898925781 -72.76419067382812 351.248046875 355.7966613769531"><title>Neo4j Graph Visualization</title><desc>Created using Neo4j (http://www.neo4j.com/)</desc><g class="layer relationships"><g class="relationship" transform="translate(148.54101241514905 254.03247242041658) rotate(323.31683758467034)"><path class="outline" fill="#A5ABB6" stroke="none" d="M 21.40063509461097,12.933012701892217 L 21.90063509461097,12.06698729810778 A 57.44922177383032 57.44922177383032 0 0 0 26.359638389815917,14.387463806359172 L 25.937254816244796,15.293880993297556 A 58.44922177383032 58.44922177383032 0 0 1 21.40063509461097,12.933012701892217 Z M 71.92989376575065,16.742651780647535 L 71.56539536632519,15.811447766042633 A 57.44922177383032 57.44922177383032 0 0 0 76.16160388308576,13.776210953666174 L 74.82809454493879,11.088879034257104 L 82.65429658473143,11.112577817891422 L 77.9396163339484,17.359320179544934 L 76.60610699580143,14.671988260135864 A 58.44922177383032 58.44922177383032 0 0 1 71.92989376575065,16.742651780647535"/><text text-anchor="middle" pointer-events="none" font-size="8px" fill="#000000" x="48.800747101982" y="23.23499480282664" font-family="sans-serif">DIRECTED</text></g><g class="relationship" transform="translate(148.54101241514905 254.03247242041658) rotate(323.31683758467034)"><path class="outline" fill="#A5ABB6" stroke="none" d="M 25 0.5 L 27.579052123236835 0.5 L 27.579052123236835 -0.5 L 25 -0.5 Z M 70.46967712323683 0.5 L 73.04872924647367 0.5 L 73.04872924647367 3.5 L 80.04872924647367 0 L 73.04872924647367 -3.5 L 73.04872924647367 -0.5 L 70.46967712323683 -0.5 Z"/><text text-anchor="middle" pointer-events="none" font-size="8px" fill="#000000" x="49.024364623236835" y="3" font-family="sans-serif">PRODU…</text></g><g class="relationship" transform="translate(148.54101241514905 254.03247242041658) rotate(323.31683758467034)"><path class="outline" fill="#A5ABB6" stroke="none" d="M 21.40063509461097,-12.933012701892217 L 21.90063509461097,-12.06698729810778 A 57.44922177383032 57.44922177383032 0 0 1 31.458462778138998,-16.472119044526835 L 31.124832789575457,-17.41482315013532 A 58.44922177383032 58.44922177383032 0 0 0 21.40063509461097,-12.933012701892217 Z M 66.61911322566111,-18.532895037035864 L 66.34547626765296,-17.571061987483063 A 57.44922177383032 57.44922177383032 0 0 1 76.16160388308576,-13.776210953666174 L 74.82809454493879,-11.088879034257104 L 82.65429658473143,-11.112577817891422 L 77.9396163339484,-17.359320179544934 L 76.60610699580143,-14.671988260135864 A 58.44922177383032 58.44922177383032 0 0 0 66.61911322566111,-18.532895037035864"/><text text-anchor="middle" pointer-events="none" font-size="8px" fill="#000000" x="48.800747101981976" y="-17.234994802826634" font-family="sans-serif">WROTE</text></g><g class="relationship" transform="translate(231.0959619857673 11.279237376218363) rotate(208.05339842206456)"><path class="outline" fill="#A5ABB6" stroke="none" d="M 24.018736134675446,6.953439040707552 L 24.277555179777966,5.987513214418485 A 101.11498208082779 101.11498208082779 0 0 0 31.125592414217284,7.569553615818265 L 30.93449861708015,8.55112539653311 A 102.11498208082779 102.11498208082779 0 0 1 24.018736134675446,6.953439040707552 Z M 66.69387833514865,9.13233563398505 L 66.5347847357903,8.145072129826616 A 101.11498208082779 101.11498208082779 0 0 0 73.43061818532573,6.786415870062411 L 72.74874356818567,3.8649355934731444 L 80.3610512668907,5.6822884761671535 L 74.33978434151247,10.681722905514768 L 73.65790972437242,7.7602426289255 A 102.11498208082779 102.11498208082779 0 0 1 66.69387833514865,9.13233563398505"/><text text-anchor="middle" pointer-events="none" font-size="8px" fill="#000000" x="48.79667103997996" y="12.919503427802113" transform="rotate(180 48.79667103997996 9.919503427802113)" font-family="sans-serif">WROTE</text></g><g class="relationship" transform="translate(34.177275940267045 -43.7641876304758) rotate(363.17661870531094)"><path class="outline" fill="#A5ABB6" stroke="none" d="M 24.018736134675446,6.953439040707552 L 24.277555179777966,5.987513214418485 A 101.0511314492455 101.0511314492455 0 0 0 25.71230500132099,6.360695104725778 L 25.467684212101073,7.3303139316270745 A 102.0511314492455 102.0511314492455 0 0 1 24.018736134675446,6.953439040707552 Z M 72.16551346040193,8.089527985529955 L 71.95254178018875,7.112469612950719 A 101.0511314492455 101.0511314492455 0 0 0 73.39866451488281,6.786124994683831 L 72.71681706822406,3.8646383766270334 L 80.3291078647918,5.6820620554895545 L 74.30779444376114,10.68144048542623 L 73.62594699710239,7.759953867369431 A 102.0511314492455 102.0511314492455 0 0 1 72.16551346040193,8.089527985529955"/><text text-anchor="middle" pointer-events="none" font-size="8px" fill="#000000" x="48.780710768740356" y="12.91732852706555" font-family="sans-serif">DIRECTED</text></g><g class="relationship" transform="translate(231.0959619857673 11.279237376218363) rotate(208.05339842206456)"><path class="outline" fill="#A5ABB6" stroke="none" d="M 24.018736134675446,-6.953439040707552 L 24.277555179777966,-5.987513214418485 A 101.11498208082779 101.11498208082779 0 0 1 25.727890890159003,-6.364633116508614 L 25.48341527548128,-7.334288557285362 A 102.11498208082779 102.11498208082779 0 0 0 24.018736134675446,-6.953439040707552 Z M 72.18162733072731,-8.093291625325065 L 71.96879285139471,-7.116203356842007 A 101.11498208082779 101.11498208082779 0 0 1 73.43061818532573,-6.786415870062411 L 72.74874356818567,-3.8649355934731444 L 80.3610512668907,-5.6822884761671535 L 74.33978434151247,-10.681722905514768 L 73.65790972437242,-7.7602426289255 A 102.11498208082779 102.11498208082779 0 0 0 72.18162733072731,-8.093291625325065"/><text text-anchor="middle" pointer-events="none" font-size="8px" fill="#000000" x="48.79667103997995" y="-6.919503427802113" transform="rotate(180 48.79667103997995 -9.919503427802113)" font-family="sans-serif">DIRECTED</text></g><g class="relationship" transform="translate(34.177275940267045 -43.7641876304758) rotate(363.17661870531094)"><path class="outline" fill="#A5ABB6" stroke="none" d="M 24.018736134675446,-6.953439040707552 L 24.277555179777966,-5.987513214418485 A 101.0511314492455 101.0511314492455 0 0 1 31.109829169869943,-7.566326977072791 L 30.918622173164167,-8.547876713158914 A 102.0511314492455 102.0511314492455 0 0 0 24.018736134675446,-6.953439040707552 Z M 66.67787650688382,-9.129251241360052 L 66.51867823295814,-8.142004610786373 A 101.0511314492455 101.0511314492455 0 0 1 73.39866451488281,-6.786124994683831 L 72.71681706822406,-3.8646383766270334 L 80.3291078647918,-5.6820620554895545 L 74.30779444376114,-10.68144048542623 L 73.62594699710239,-7.759953867369431 A 102.0511314492455 102.0511314492455 0 0 0 66.67787650688382,-9.129251241360052"/><text text-anchor="middle" pointer-events="none" font-size="8px" fill="#000000" x="48.780710768740306" y="-6.91732852706555" font-family="sans-serif">WROTE</text></g><g class="relationship" transform="translate(-60.46308521515737 110.22574236388647) rotate(427.530761498845)"><path class="outline" fill="#A5ABB6" stroke="none" d="M 21.40063509461097,12.933012701892217 L 21.90063509461097,12.06698729810778 A 57.21616248921989 57.21616248921989 0 0 0 31.34903498129477,16.429191389134317 L 31.014170136740823,17.371457559535152 A 58.21616248921989 58.21616248921989 0 0 1 21.40063509461097,12.933012701892217 Z M 66.50501513244001,18.491688792808958 L 66.23024094415197,17.53018000686332 A 57.21616248921989 57.21616248921989 0 0 0 75.93493570802941,13.77252322498111 L 74.60176943493661,11.0850210969284 L 82.42796838566787,11.109718942440022 L 77.71249073881981,17.355859395718056 L 76.37932446572701,14.668357267665346 A 58.21616248921989 58.21616248921989 0 0 1 66.50501513244001,18.491688792808958"/><text text-anchor="middle" pointer-events="none" font-size="8px" fill="#000000" x="48.68787312231816" y="23.20377021694106" font-family="sans-serif">WROTE</text></g><g class="relationship" transform="translate(-60.46308521515737 110.22574236388647) rotate(427.530761498845)"><path class="outline" fill="#A5ABB6" stroke="none" d="M 25 0.5 L 27.466597226386895 0.5 L 27.466597226386895 -0.5 L 25 -0.5 Z M 70.3572222263869 0.5 L 72.82381945277379 0.5 L 72.82381945277379 3.5 L 79.82381945277379 0 L 72.82381945277379 -3.5 L 72.82381945277379 -0.5 L 70.3572222263869 -0.5 Z"/><text text-anchor="middle" pointer-events="none" font-size="8px" fill="#000000" x="48.911909726386895" y="3" font-family="sans-serif">PRODU…</text></g><g class="relationship" transform="translate(-60.46308521515737 110.22574236388647) rotate(427.530761498845)"><path class="outline" fill="#A5ABB6" stroke="none" d="M 21.40063509461097,-12.933012701892217 L 21.90063509461097,-12.06698729810778 A 57.21616248921989 57.21616248921989 0 0 1 26.253546323507514,-14.336950517350914 L 25.829624673391898,-15.242649382627476 A 58.21616248921989 58.21616248921989 0 0 0 21.40063509461097,-12.933012701892217 Z M 71.8134937622176,-16.69408189673974 L 71.44753392371155,-15.763451252176267 A 57.21616248921989 57.21616248921989 0 0 1 75.93493570802941,-13.77252322498111 L 74.60176943493661,-11.0850210969284 L 82.42796838566787,-11.109718942440022 L 77.71249073881981,-17.355859395718056 L 76.37932446572701,-14.668357267665346 A 58.21616248921989 58.21616248921989 0 0 0 71.8134937622176,-16.69408189673974"/><text text-anchor="middle" pointer-events="none" font-size="8px" fill="#000000" x="48.687873122318166" y="-17.20377021694106" font-family="sans-serif">DIRECTED</text></g></g><g class="layer nodes"><g class="node" transform="translate(148.54101241514905,254.03247242041658)"><circle class="outline" cx="0" cy="0" r="25" fill="#6DCE9E" stroke="#60B58B" stroke-width="2px"/><text text-anchor="middle" pointer-events="none" font-family="sans-serif" dy="1.5625" font-size="25" fill="#FFFFFF"/><text text-anchor="middle" pointer-events="none" font-family="sans-serif" dy="1.5625" font-size="25" fill="#FFFFFF"/><text text-anchor="middle" pointer-events="none" y="0" font-size="10px" fill="#FFFFFF" font-family="sans-serif"> Cameron</text><text text-anchor="middle" pointer-events="none" y="10" font-size="10px" fill="#FFFFFF" font-family="sans-serif"> Crowe</text></g><g class="node" transform="translate(232.7849705163473,191.2774643354638)"><circle class="outline" cx="0" cy="0" r="25" fill="#68BDF6" stroke="#5CA8DB" stroke-width="2px"/><text text-anchor="middle" pointer-events="none" font-family="sans-serif" dy="1.5625" font-size="25" fill="#FFFFFF"/><text text-anchor="middle" pointer-events="none" font-family="sans-serif" dy="1.5625" font-size="25" fill="#FFFFFF"/><text text-anchor="middle" pointer-events="none" y="0" font-size="10px" fill="#FFFFFF" font-family="sans-serif"> Jerry</text><text text-anchor="middle" pointer-events="none" y="10" font-size="10px" fill="#FFFFFF" font-family="sans-serif"> Maguire</text></g><g class="node" transform="translate(231.0959619857673,11.279237376218363)"><circle class="outline" cx="0" cy="0" r="25" fill="#6DCE9E" stroke="#60B58B" stroke-width="2px"/><text text-anchor="middle" pointer-events="none" font-family="sans-serif" dy="1.5625" font-size="25" fill="#FFFFFF"/><text text-anchor="middle" pointer-events="none" font-family="sans-serif" dy="1.5625" font-size="25" fill="#FFFFFF"/><text text-anchor="middle" pointer-events="none" y="0" font-size="10px" fill="#FFFFFF" font-family="sans-serif"> Lana</text><text text-anchor="middle" pointer-events="none" y="10" font-size="10px" fill="#FFFFFF" font-family="sans-serif"> Wacho…</text></g><g class="node" transform="translate(138.69126863457632,-37.96373074887692)"><circle class="outline" cx="0" cy="0" r="25" fill="#68BDF6" stroke="#5CA8DB" stroke-width="2px"/><text text-anchor="middle" pointer-events="none" font-family="sans-serif" dy="1.5625" font-size="25" fill="#FFFFFF"/><text text-anchor="middle" pointer-events="none" font-family="sans-serif" dy="1.5625" font-size="25" fill="#FFFFFF"/><text text-anchor="middle" pointer-events="none" y="0" font-size="10px" fill="#FFFFFF" font-family="sans-serif"> Speed</text><text text-anchor="middle" pointer-events="none" y="10" font-size="10px" fill="#FFFFFF" font-family="sans-serif"> Racer</text></g><g class="node" transform="translate(34.177275940267045,-43.7641876304758)"><circle class="outline" cx="0" cy="0" r="25" fill="#6DCE9E" stroke="#60B58B" stroke-width="2px"/><text text-anchor="middle" pointer-events="none" font-family="sans-serif" dy="1.5625" font-size="25" fill="#FFFFFF"/><text text-anchor="middle" pointer-events="none" font-family="sans-serif" dy="1.5625" font-size="25" fill="#FFFFFF"/><text text-anchor="middle" pointer-events="none" y="0" font-size="10px" fill="#FFFFFF" font-family="sans-serif"> Lilly</text><text text-anchor="middle" pointer-events="none" y="10" font-size="10px" fill="#FFFFFF" font-family="sans-serif"> Wacho…</text></g><g class="node" transform="translate(-60.46308521515737,110.22574236388647)"><circle class="outline" cx="0" cy="0" r="25" fill="#6DCE9E" stroke="#60B58B" stroke-width="2px"/><text text-anchor="middle" pointer-events="none" font-family="sans-serif" dy="1.5625" font-size="25" fill="#FFFFFF"/><text text-anchor="middle" pointer-events="none" font-family="sans-serif" dy="1.5625" font-size="25" fill="#FFFFFF"/><text text-anchor="middle" pointer-events="none" y="0" font-size="10px" fill="#FFFFFF" font-family="sans-serif"> Nancy</text><text text-anchor="middle" pointer-events="none" y="10" font-size="10px" fill="#FFFFFF" font-family="sans-serif"> Meyers</text></g><g class="node" transform="translate(-20.40074680514215,207.09184668211088)"><circle class="outline" cx="0" cy="0" r="25" fill="#68BDF6" stroke="#5CA8DB" stroke-width="2px"/><text text-anchor="middle" pointer-events="none" font-family="sans-serif" dy="1.5625" font-size="25" fill="#FFFFFF"/><text text-anchor="middle" pointer-events="none" y="5" font-size="10px" fill="#FFFFFF" font-family="sans-serif"> Somethi…</text></g></g></svg>