<svg xmlns="http://www.w3.org/2000/svg" width="890.2305908203125" height="763.3815307617188" viewBox="-327.8066101074219 -312.6639404296875 890.2305908203125 763.3815307617188"><title>Neo4j Graph Visualization</title><desc>Created using Neo4j (http://www.neo4j.com/)</desc><g class="layer relationships"><g class="relationship" transform="translate(130.91461157497446 112.81425290981066) rotate(409.12470367375477)"><path class="outline" fill="#A5ABB6" stroke="none" d="M 25 0.5 L 54.69485460868347 0.5 L 54.69485460868347 -0.5 L 25 -0.5 Z M 100.25735460868347 0.5 L 129.95220921736694 0.5 L 129.95220921736694 3.5 L 136.95220921736694 0 L 129.95220921736694 -3.5 L 129.95220921736694 -0.5 L 100.25735460868347 -0.5 Z"/><text text-anchor="middle" pointer-events="none" font-size="8px" fill="#000000" x="77.47610460868347" y="3" font-family="sans-serif">ACTED_IN</text></g><g class="relationship" transform="translate(161.46160506958395 421.71755423555345) rotate(292.02854838087137)"><path class="outline" fill="#A5ABB6" stroke="none" d="M 25 0.5 L 74.2829574539326 0.5 L 74.2829574539326 -0.5 L 25 -0.5 Z M 119.8454574539326 0.5 L 169.1284149078652 0.5 L 169.1284149078652 3.5 L 176.1284149078652 0 L 169.1284149078652 -3.5 L 169.1284149078652 -0.5 L 119.8454574539326 -0.5 Z"/><text text-anchor="middle" pointer-events="none" font-size="8px" fill="#000000" x="97.0642074539326" y="3" font-family="sans-serif">ACTED_IN</text></g><g class="relationship" transform="translate(466.56459289079663 344.1124452916796) rotate(205.35660013546232)"><path class="outline" fill="#A5ABB6" stroke="none" d="M 25 0.5 L 100.79423447220837 0.5 L 100.79423447220837 -0.5 L 25 -0.5 Z M 146.35673447220836 0.5 L 222.15096894441675 0.5 L 222.15096894441675 3.5 L 229.15096894441675 0 L 222.15096894441675 -3.5 L 222.15096894441675 -0.5 L 146.35673447220836 -0.5 Z"/><text text-anchor="middle" pointer-events="none" font-size="8px" fill="#000000" x="123.57548447220837" y="3" transform="rotate(180 123.57548447220837 0)" font-family="sans-serif">ACTED_IN</text></g><g class="relationship" transform="translate(315.4588533652443 343.1924504606902) rotate(233.947361807481)"><path class="outline" fill="#A5ABB6" stroke="none" d="M 25 0.5 L 40.461772850759104 0.5 L 40.461772850759104 -0.5 L 25 -0.5 Z M 86.0242728507591 0.5 L 101.48604570151821 0.5 L 101.48604570151821 3.5 L 108.48604570151821 0 L 101.48604570151821 -3.5 L 101.48604570151821 -0.5 L 86.0242728507591 -0.5 Z"/><text text-anchor="middle" pointer-events="none" font-size="8px" fill="#000000" x="63.243022850759104" y="3" transform="rotate(180 63.243022850759104 0)" font-family="sans-serif">ACTED_IN</text></g><g class="relationship" transform="translate(408.4238257059252 186.71603515368008) rotate(524.1940306085523)"><path class="outline" fill="#A5ABB6" stroke="none" d="M 25 0.5 L 62.85153543611837 0.5 L 62.85153543611837 -0.5 L 25 -0.5 Z M 108.41403543611837 0.5 L 146.26557087223674 0.5 L 146.26557087223674 3.5 L 153.26557087223674 0 L 146.26557087223674 -3.5 L 146.26557087223674 -0.5 L 108.41403543611837 -0.5 Z"/><text text-anchor="middle" pointer-events="none" font-size="8px" fill="#000000" x="85.63278543611837" y="3" transform="rotate(180 85.63278543611837 0)" font-family="sans-serif">ACTED_IN</text></g><g class="relationship" transform="translate(456.63130027919294 122.06059686216466) rotate(199.32723967422817)"><path class="outline" fill="#A5ABB6" stroke="none" d="M 25 0.5 L 58.322382733071436 0.5 L 58.322382733071436 -0.5 L 25 -0.5 Z M 103.88488273307144 0.5 L 137.20726546614287 0.5 L 137.20726546614287 3.5 L 144.20726546614287 0 L 137.20726546614287 -3.5 L 137.20726546614287 -0.5 L 103.88488273307144 -0.5 Z"/><text text-anchor="middle" pointer-events="none" font-size="8px" fill="#000000" x="81.10363273307144" y="3" transform="rotate(180 81.10363273307144 0)" font-family="sans-serif">ACTED_IN</text></g><g class="relationship" transform="translate(130.91461157497446 112.81425290981066) rotate(344.2738516665165)"><path class="outline" fill="#A5ABB6" stroke="none" d="M 25 0.5 L 59.96995028890464 0.5 L 59.96995028890464 -0.5 L 25 -0.5 Z M 105.53245028890464 0.5 L 140.50240057780928 0.5 L 140.50240057780928 3.5 L 147.50240057780928 0 L 140.50240057780928 -3.5 L 140.50240057780928 -0.5 L 105.53245028890464 -0.5 Z"/><text text-anchor="middle" pointer-events="none" font-size="8px" fill="#000000" x="82.75120028890464" y="3" font-family="sans-serif">ACTED_IN</text></g><g class="relationship" transform="translate(411.35566781662504 -131.0702365673094) rotate(480.12692017039)"><path class="outline" fill="#A5ABB6" stroke="none" d="M 25 0.5 L 87.67753288982908 0.5 L 87.67753288982908 -0.5 L 25 -0.5 Z M 133.24003288982908 0.5 L 195.91756577965816 0.5 L 195.91756577965816 3.5 L 202.91756577965816 0 L 195.91756577965816 -3.5 L 195.91756577965816 -0.5 L 133.24003288982908 -0.5 Z"/><text text-anchor="middle" pointer-events="none" font-size="8px" fill="#000000" x="110.45878288982908" y="3" transform="rotate(180 110.45878288982908 0)" font-family="sans-serif">ACTED_IN</text></g><g class="relationship" transform="translate(533.424022441901 -36.59175444172278) rotate(516.5339409506236)"><path class="outline" fill="#A5ABB6" stroke="none" d="M 25 0.5 L 102.61065723511376 0.5 L 102.61065723511376 -0.5 L 25 -0.5 Z M 148.17315723511376 0.5 L 225.78381447022753 0.5 L 225.78381447022753 3.5 L 232.78381447022753 0 L 225.78381447022753 -3.5 L 225.78381447022753 -0.5 L 148.17315723511376 -0.5 Z"/><text text-anchor="middle" pointer-events="none" font-size="8px" fill="#000000" x="125.39190723511376" y="3" transform="rotate(180 125.39190723511376 0)" font-family="sans-serif">ACTED_IN</text></g><g class="relationship" transform="translate(130.91461157497446 112.81425290981066) rotate(478.55677503921845)"><path class="outline" fill="#A5ABB6" stroke="none" d="M 25 0.5 L 25.778946147497116 0.5 L 25.778946147497116 -0.5 L 25 -0.5 Z M 71.34144614749712 0.5 L 72.12039229499423 0.5 L 72.12039229499423 3.5 L 79.12039229499423 0 L 72.12039229499423 -3.5 L 72.12039229499423 -0.5 L 71.34144614749712 -0.5 Z"/><text text-anchor="middle" pointer-events="none" font-size="8px" fill="#000000" x="48.560196147497116" y="3" transform="rotate(180 48.560196147497116 0)" font-family="sans-serif">ACTED_IN</text></g><g class="relationship" transform="translate(-73.95417570951409 416.590002089663) rotate(306.1472108375761)"><path class="outline" fill="#A5ABB6" stroke="none" d="M 25 0.5 L 105.1869595573734 0.5 L 105.1869595573734 -0.5 L 25 -0.5 Z M 150.7494595573734 0.5 L 230.9364191147468 0.5 L 230.9364191147468 3.5 L 237.9364191147468 0 L 230.9364191147468 -3.5 L 230.9364191147468 -0.5 L 150.7494595573734 -0.5 Z"/><text text-anchor="middle" pointer-events="none" font-size="8px" fill="#000000" x="127.9682095573734" y="3" font-family="sans-serif">ACTED_IN</text></g><g class="relationship" transform="translate(-298.8066243807458 293.32330367167384) rotate(346.8086626982192)"><path class="outline" fill="#A5ABB6" stroke="none" d="M 25 0.5 L 168.84169376239788 0.5 L 168.84169376239788 -0.5 L 25 -0.5 Z M 214.40419376239788 0.5 L 358.24588752479576 0.5 L 358.24588752479576 3.5 L 365.24588752479576 0 L 358.24588752479576 -3.5 L 358.24588752479576 -0.5 L 214.40419376239788 -0.5 Z"/><text text-anchor="middle" pointer-events="none" font-size="8px" fill="#000000" x="191.62294376239788" y="3" font-family="sans-serif">ACTED_IN</text></g><g class="relationship" transform="translate(-273.8406505701511 58.69483695711253) rotate(382.2977789486383)"><path class="outline" fill="#A5ABB6" stroke="none" d="M 25 0.5 L 165.5547238842539 0.5 L 165.5547238842539 -0.5 L 25 -0.5 Z M 211.1172238842539 0.5 L 351.6719477685078 0.5 L 351.6719477685078 3.5 L 358.6719477685078 0 L 351.6719477685078 -3.5 L 351.6719477685078 -0.5 L 211.1172238842539 -0.5 Z"/><text text-anchor="middle" pointer-events="none" font-size="8px" fill="#000000" x="188.3359738842539" y="3" font-family="sans-serif">ACTED_IN</text></g><g class="relationship" transform="translate(130.91461157497446 112.81425290981066) rotate(256.1082284015347)"><path class="outline" fill="#A5ABB6" stroke="none" d="M 25 0.5 L 177.93085700418177 0.5 L 177.93085700418177 -0.5 L 25 -0.5 Z M 223.49335700418177 0.5 L 376.42421400836355 0.5 L 376.42421400836355 3.5 L 383.42421400836355 0 L 376.42421400836355 -3.5 L 376.42421400836355 -0.5 L 223.49335700418177 -0.5 Z"/><text text-anchor="middle" pointer-events="none" font-size="8px" fill="#000000" x="200.71210700418177" y="3" transform="rotate(180 200.71210700418177 0)" font-family="sans-serif">ACTED_IN</text></g><g class="relationship" transform="translate(-298.8066243807458 293.32330367167384) rotate(299.89110666725924)"><path class="outline" fill="#A5ABB6" stroke="none" d="M 25 0.5 L 306.4779666632341 0.5 L 306.4779666632341 -0.5 L 25 -0.5 Z M 352.0404666632341 0.5 L 633.5184333264682 0.5 L 633.5184333264682 3.5 L 640.5184333264682 0 L 633.5184333264682 -3.5 L 633.5184333264682 -0.5 L 352.0404666632341 -0.5 Z"/><text text-anchor="middle" pointer-events="none" font-size="8px" fill="#000000" x="329.2592166632341" y="3" font-family="sans-serif">ACTED_IN</text></g><g class="relationship" transform="translate(-73.95417570951409 416.590002089663) rotate(278.6725644849347)"><path class="outline" fill="#A5ABB6" stroke="none" d="M 25 0.5 L 327.8953086233173 0.5 L 327.8953086233173 -0.5 L 25 -0.5 Z M 373.4578086233173 0.5 L 676.3531172466346 0.5 L 676.3531172466346 3.5 L 683.3531172466346 0 L 676.3531172466346 -3.5 L 676.3531172466346 -0.5 L 373.4578086233173 -0.5 Z"/><text text-anchor="middle" pointer-events="none" font-size="8px" fill="#000000" x="350.6765586233173" y="3" font-family="sans-serif">ACTED_IN</text></g><g class="relationship" transform="translate(-273.8406505701511 58.69483695711253) rotate(311.85512034715134)"><path class="outline" fill="#A5ABB6" stroke="none" d="M 25 0.5 L 203.54082383435193 0.5 L 203.54082383435193 -0.5 L 25 -0.5 Z M 249.10332383435193 0.5 L 427.64414766870385 0.5 L 427.64414766870385 3.5 L 434.64414766870385 0 L 427.64414766870385 -3.5 L 427.64414766870385 -0.5 L 249.10332383435193 -0.5 Z"/><text text-anchor="middle" pointer-events="none" font-size="8px" fill="#000000" x="226.32207383435193" y="3" font-family="sans-serif">ACTED_IN</text></g><g class="relationship" transform="translate(-114.07097069975275 -178.06856339236361) rotate(418.39194381493627)"><path class="outline" fill="#A5ABB6" stroke="none" d="M 25 0.5 L 104.15348639178893 0.5 L 104.15348639178893 -0.5 L 25 -0.5 Z M 149.71598639178893 0.5 L 228.86947278357786 0.5 L 228.86947278357786 3.5 L 235.86947278357786 0 L 228.86947278357786 -3.5 L 228.86947278357786 -0.5 L 149.71598639178893 -0.5 Z"/><text text-anchor="middle" pointer-events="none" font-size="8px" fill="#000000" x="126.93473639178893" y="3" font-family="sans-serif">ACTED_IN</text></g><g class="relationship" transform="translate(130.91461157497446 112.81425290981066) rotate(212.40266511950307)"><path class="outline" fill="#A5ABB6" stroke="none" d="M 25 0.5 L 37.832234805070215 0.5 L 37.832234805070215 -0.5 L 25 -0.5 Z M 83.39473480507021 0.5 L 96.22696961014043 0.5 L 96.22696961014043 3.5 L 103.22696961014043 0 L 96.22696961014043 -3.5 L 96.22696961014043 -0.5 L 83.39473480507021 -0.5 Z"/><text text-anchor="middle" pointer-events="none" font-size="8px" fill="#000000" x="60.613484805070215" y="3" transform="rotate(180 60.613484805070215 0)" font-family="sans-serif">ACTED_IN</text></g><g class="relationship" transform="translate(-298.8066243807458 293.32330367167384) rotate(322.2141897545196)"><path class="outline" fill="#A5ABB6" stroke="none" d="M 25 0.5 L 177.09472318307954 0.5 L 177.09472318307954 -0.5 L 25 -0.5 Z M 222.65722318307954 0.5 L 374.7519463661591 0.5 L 374.7519463661591 3.5 L 381.7519463661591 0 L 374.7519463661591 -3.5 L 374.7519463661591 -0.5 L 222.65722318307954 -0.5 Z"/><text text-anchor="middle" pointer-events="none" font-size="8px" fill="#000000" x="199.87597318307954" y="3" font-family="sans-serif">ACTED_IN</text></g><g class="relationship" transform="translate(-73.95417570951409 416.590002089663) rotate(284.53954988221074)"><path class="outline" fill="#A5ABB6" stroke="none" d="M 25 0.5 L 166.1247488327496 0.5 L 166.1247488327496 -0.5 L 25 -0.5 Z M 211.6872488327496 0.5 L 352.8119976654992 0.5 L 352.8119976654992 3.5 L 359.8119976654992 0 L 352.8119976654992 -3.5 L 352.8119976654992 -0.5 L 211.6872488327496 -0.5 Z"/><text text-anchor="middle" pointer-events="none" font-size="8px" fill="#000000" x="188.9059988327496" y="3" font-family="sans-serif">ACTED_IN</text></g><g class="relationship" transform="translate(-273.8406505701511 58.69483695711253) rotate(357.1822358694218)"><path class="outline" fill="#A5ABB6" stroke="none" d="M 25 0.5 L 122.14462870092711 0.5 L 122.14462870092711 -0.5 L 25 -0.5 Z M 167.70712870092711 0.5 L 264.85175740185423 0.5 L 264.85175740185423 3.5 L 271.85175740185423 0 L 264.85175740185423 -3.5 L 264.85175740185423 -0.5 L 167.70712870092711 -0.5 Z"/><text text-anchor="middle" pointer-events="none" font-size="8px" fill="#000000" x="144.92587870092711" y="3" font-family="sans-serif">ACTED_IN</text></g></g><g class="layer nodes"><g class="node" transform="translate(161.46160506958395,421.71755423555345)"><circle class="outline" cx="0" cy="0" r="25" fill="#6DCE9E" stroke="#60B58B" stroke-width="2px"/><text text-anchor="middle" pointer-events="none" font-family="sans-serif" dy="1.5625" font-size="25" fill="#FFFFFF"/><text text-anchor="middle" pointer-events="none" y="5" font-size="10px" fill="#FFFFFF" font-family="sans-serif"> Ben Miles</text></g><g class="node" transform="translate(236.89854369450964,235.27209954638823)"><circle class="outline" cx="0" cy="0" r="25" fill="#68BDF6" stroke="#5CA8DB" stroke-width="2px"/><text text-anchor="middle" pointer-events="none" font-family="sans-serif" dy="1.5625" font-size="25" fill="#FFFFFF"/><text text-anchor="middle" pointer-events="none" font-family="sans-serif" dy="1.5625" font-size="25" fill="#FFFFFF"/><text text-anchor="middle" pointer-events="none" y="0" font-size="10px" fill="#FFFFFF" font-family="sans-serif"> V for</text><text text-anchor="middle" pointer-events="none" y="10" font-size="10px" fill="#FFFFFF" font-family="sans-serif"> Vendetta</text></g><g class="node" transform="translate(130.91461157497446,112.81425290981066)"><circle class="outline" cx="0" cy="0" r="25" fill="#6DCE9E" stroke="#60B58B" stroke-width="2px"/><text text-anchor="middle" pointer-events="none" font-family="sans-serif" dy="1.5625" font-size="25" fill="#FFFFFF"/><text text-anchor="middle" pointer-events="none" font-family="sans-serif" dy="1.5625" font-size="25" fill="#FFFFFF"/><text text-anchor="middle" pointer-events="none" y="0" font-size="10px" fill="#FFFFFF" font-family="sans-serif"> Hugo</text><text text-anchor="middle" pointer-events="none" y="10" font-size="10px" fill="#FFFFFF" font-family="sans-serif"> Weaving</text></g><g class="node" transform="translate(466.56459289079663,344.1124452916796)"><circle class="outline" cx="0" cy="0" r="25" fill="#6DCE9E" stroke="#60B58B" stroke-width="2px"/><text text-anchor="middle" pointer-events="none" font-family="sans-serif" dy="1.5625" font-size="25" fill="#FFFFFF"/><text text-anchor="middle" pointer-events="none" y="5" font-size="10px" fill="#FFFFFF" font-family="sans-serif"> John Hurt</text></g><g class="node" transform="translate(315.4588533652443,343.1924504606902)"><circle class="outline" cx="0" cy="0" r="25" fill="#6DCE9E" stroke="#60B58B" stroke-width="2px"/><text text-anchor="middle" pointer-events="none" font-family="sans-serif" dy="1.5625" font-size="25" fill="#FFFFFF"/><text text-anchor="middle" pointer-events="none" font-family="sans-serif" dy="1.5625" font-size="25" fill="#FFFFFF"/><text text-anchor="middle" pointer-events="none" y="0" font-size="10px" fill="#FFFFFF" font-family="sans-serif"> Stephen</text><text text-anchor="middle" pointer-events="none" y="10" font-size="10px" fill="#FFFFFF" font-family="sans-serif"> Rea</text></g><g class="node" transform="translate(408.4238257059252,186.71603515368008)"><circle class="outline" cx="0" cy="0" r="25" fill="#6DCE9E" stroke="#60B58B" stroke-width="2px"/><text text-anchor="middle" pointer-events="none" font-family="sans-serif" dy="1.5625" font-size="25" fill="#FFFFFF"/><text text-anchor="middle" pointer-events="none" font-family="sans-serif" dy="1.5625" font-size="25" fill="#FFFFFF"/><text text-anchor="middle" pointer-events="none" y="0" font-size="10px" fill="#FFFFFF" font-family="sans-serif"> Natalie</text><text text-anchor="middle" pointer-events="none" y="10" font-size="10px" fill="#FFFFFF" font-family="sans-serif"> Portman</text></g><g class="node" transform="translate(456.63130027919294,122.06059686216466)"><circle class="outline" cx="0" cy="0" r="25" fill="#6DCE9E" stroke="#60B58B" stroke-width="2px"/><text text-anchor="middle" pointer-events="none" font-family="sans-serif" dy="1.5625" font-size="25" fill="#FFFFFF"/><text text-anchor="middle" pointer-events="none" font-family="sans-serif" dy="1.5625" font-size="25" fill="#FFFFFF"/><text text-anchor="middle" pointer-events="none" y="0" font-size="10px" fill="#FFFFFF" font-family="sans-serif"> Jim</text><text text-anchor="middle" pointer-events="none" y="10" font-size="10px" fill="#FFFFFF" font-family="sans-serif"> Broadb…</text></g><g class="node" transform="translate(296.959928347454,66.05924266455577)"><circle class="outline" cx="0" cy="0" r="25" fill="#68BDF6" stroke="#5CA8DB" stroke-width="2px"/><text text-anchor="middle" pointer-events="none" font-family="sans-serif" dy="1.5625" font-size="25" fill="#FFFFFF"/><text text-anchor="middle" pointer-events="none" font-family="sans-serif" dy="1.5625" font-size="25" fill="#FFFFFF"/><text text-anchor="middle" pointer-events="none" y="0" font-size="10px" fill="#FFFFFF" font-family="sans-serif"> Cloud</text><text text-anchor="middle" pointer-events="none" y="10" font-size="10px" fill="#FFFFFF" font-family="sans-serif"> Atlas</text></g><g class="node" transform="translate(411.35566781662504,-131.0702365673094)"><circle class="outline" cx="0" cy="0" r="25" fill="#6DCE9E" stroke="#60B58B" stroke-width="2px"/><text text-anchor="middle" pointer-events="none" font-family="sans-serif" dy="1.5625" font-size="25" fill="#FFFFFF"/><text text-anchor="middle" pointer-events="none" font-family="sans-serif" dy="1.5625" font-size="25" fill="#FFFFFF"/><text text-anchor="middle" pointer-events="none" y="0" font-size="10px" fill="#FFFFFF" font-family="sans-serif"> Halle</text><text text-anchor="middle" pointer-events="none" y="10" font-size="10px" fill="#FFFFFF" font-family="sans-serif"> Berry</text></g><g class="node" transform="translate(533.424022441901,-36.59175444172278)"><circle class="outline" cx="0" cy="0" r="25" fill="#6DCE9E" stroke="#60B58B" stroke-width="2px"/><text text-anchor="middle" pointer-events="none" font-family="sans-serif" dy="1.5625" font-size="25" fill="#FFFFFF"/><text text-anchor="middle" pointer-events="none" font-family="sans-serif" dy="1.5625" font-size="25" fill="#FFFFFF"/><text text-anchor="middle" pointer-events="none" y="0" font-size="10px" fill="#FFFFFF" font-family="sans-serif"> Tom</text><text text-anchor="middle" pointer-events="none" y="10" font-size="10px" fill="#FFFFFF" font-family="sans-serif"> Hanks</text></g><g class="node" transform="translate(-73.95417570951409,416.590002089663)"><circle class="outline" cx="0" cy="0" r="25" fill="#6DCE9E" stroke="#60B58B" stroke-width="2px"/><text text-anchor="middle" pointer-events="none" font-family="sans-serif" dy="1.5625" font-size="25" fill="#FFFFFF"/><text text-anchor="middle" pointer-events="none" y="5" font-size="10px" fill="#FFFFFF" font-family="sans-serif"> Carrie-A…</text></g><g class="node" transform="translate(81.14200752873143,204.26776010400965)"><circle class="outline" cx="0" cy="0" r="25" fill="#68BDF6" stroke="#5CA8DB" stroke-width="2px"/><text text-anchor="middle" pointer-events="none" font-family="sans-serif" dy="1.5625" font-size="25" fill="#FFFFFF"/><text text-anchor="middle" pointer-events="none" font-family="sans-serif" dy="1.5625" font-size="25" fill="#FFFFFF"/><text text-anchor="middle" pointer-events="none" font-family="sans-serif" dy="1.5625" font-size="25" fill="#FFFFFF"/><text text-anchor="middle" pointer-events="none" y="-5" font-size="10px" fill="#FFFFFF" font-family="sans-serif"> The</text><text text-anchor="middle" pointer-events="none" y="5" font-size="10px" fill="#FFFFFF" font-family="sans-serif"> Matrix</text><text text-anchor="middle" pointer-events="none" y="15" font-size="10px" fill="#FFFFFF" font-family="sans-serif"> Revol…</text></g><g class="node" transform="translate(-298.8066243807458,293.32330367167384)"><circle class="outline" cx="0" cy="0" r="25" fill="#6DCE9E" stroke="#60B58B" stroke-width="2px"/><text text-anchor="middle" pointer-events="none" font-family="sans-serif" dy="1.5625" font-size="25" fill="#FFFFFF"/><text text-anchor="middle" pointer-events="none" font-family="sans-serif" dy="1.5625" font-size="25" fill="#FFFFFF"/><text text-anchor="middle" pointer-events="none" y="0" font-size="10px" fill="#FFFFFF" font-family="sans-serif"> Laurence</text><text text-anchor="middle" pointer-events="none" y="10" font-size="10px" fill="#FFFFFF" font-family="sans-serif"> Fishbur…</text></g><g class="node" transform="translate(-273.8406505701511,58.69483695711253)"><circle class="outline" cx="0" cy="0" r="25" fill="#6DCE9E" stroke="#60B58B" stroke-width="2px"/><text text-anchor="middle" pointer-events="none" font-family="sans-serif" dy="1.5625" font-size="25" fill="#FFFFFF"/><text text-anchor="middle" pointer-events="none" font-family="sans-serif" dy="1.5625" font-size="25" fill="#FFFFFF"/><text text-anchor="middle" pointer-events="none" y="0" font-size="10px" fill="#FFFFFF" font-family="sans-serif"> Keanu</text><text text-anchor="middle" pointer-events="none" y="10" font-size="10px" fill="#FFFFFF" font-family="sans-serif"> Reeves</text></g><g class="node" transform="translate(32.856600436765774,-283.6639495679151)"><circle class="outline" cx="0" cy="0" r="25" fill="#68BDF6" stroke="#5CA8DB" stroke-width="2px"/><text text-anchor="middle" pointer-events="none" font-family="sans-serif" dy="1.5625" font-size="25" fill="#FFFFFF"/><text text-anchor="middle" pointer-events="none" font-family="sans-serif" dy="1.5625" font-size="25" fill="#FFFFFF"/><text text-anchor="middle" pointer-events="none" font-family="sans-serif" dy="1.5625" font-size="25" fill="#FFFFFF"/><text text-anchor="middle" pointer-events="none" y="-5" font-size="10px" fill="#FFFFFF" font-family="sans-serif"> The</text><text text-anchor="middle" pointer-events="none" y="5" font-size="10px" fill="#FFFFFF" font-family="sans-serif"> Matrix</text><text text-anchor="middle" pointer-events="none" y="15" font-size="10px" fill="#FFFFFF" font-family="sans-serif"> Reloa…</text></g><g class="node" transform="translate(-114.07097069975275,-178.06856339236361)"><circle class="outline" cx="0" cy="0" r="25" fill="#6DCE9E" stroke="#60B58B" stroke-width="2px"/><text text-anchor="middle" pointer-events="none" font-family="sans-serif" dy="1.5625" font-size="25" fill="#FFFFFF"/><text text-anchor="middle" pointer-events="none" font-family="sans-serif" dy="1.5625" font-size="25" fill="#FFFFFF"/><text text-anchor="middle" pointer-events="none" y="0" font-size="10px" fill="#FFFFFF" font-family="sans-serif"> Emil</text><text text-anchor="middle" pointer-events="none" y="10" font-size="10px" fill="#FFFFFF" font-family="sans-serif"> Eifrem</text></g><g class="node" transform="translate(22.652196382193765,44.10177084122395)"><circle class="outline" cx="0" cy="0" r="25" fill="#68BDF6" stroke="#5CA8DB" stroke-width="2px"/><text text-anchor="middle" pointer-events="none" font-family="sans-serif" dy="1.5625" font-size="25" fill="#FFFFFF"/><text text-anchor="middle" pointer-events="none" font-family="sans-serif" dy="1.5625" font-size="25" fill="#FFFFFF"/><text text-anchor="middle" pointer-events="none" y="0" font-size="10px" fill="#FFFFFF" font-family="sans-serif"> The</text><text text-anchor="middle" pointer-events="none" y="10" font-size="10px" fill="#FFFFFF" font-family="sans-serif"> Matrix</text></g></g></svg>