<svg xmlns="http://www.w3.org/2000/svg" width="917.790771484375" height="216.5165557861328" viewBox="-281.2416076660156 -44.73067092895508 917.790771484375 216.5165557861328"><title>Neo4j Graph Visualization</title><desc>Created using Neo4j (http://www.neo4j.com/)</desc><g class="layer relationships"><g class="relationship" transform="translate(-252.24160742753975 45.92496528379937) rotate(362.52634372916515)"><path class="outline" fill="#A5ABB6" stroke="none" d="M 21.40063509461097,12.933012701892217 L 21.90063509461097,12.06698729810778 A 248.12507320434585 248.12507320434585 0 0 0 112.3645357032311,43.024122482758 L 112.22912562330788,44.01491212251773 A 249.12507320434585 249.12507320434585 0 0 1 21.40063509461097,12.933012701892217 Z M 173.91687979832693,44.73616779836834 L 173.80467227243645,43.742483003710845 A 248.12507320434585 248.12507320434585 0 0 0 264.96764791014044,14.908936481536868 L 263.52880328218924,12.276499181881663 L 271.3498090473278,11.990371899593283 L 266.8861074140754,18.418852881077143 L 265.4472627861242,15.786415581421936 A 249.12507320434585 249.12507320434585 0 0 1 173.91687979832693,44.73616779836834"/><text text-anchor="middle" pointer-events="none" font-size="8px" fill="#000000" x="143.05643612428156" y="48.792451538348985" font-family="sans-serif">PublicTransport</text></g><g class="relationship" transform="translate(40.760122089682426 58.85267434182535) rotate(368.66162538875267)"><path class="outline" fill="#A5ABB6" stroke="none" d="M 25 0.5 L 102.16722341997641 0.5 L 102.16722341997641 -0.5 L 25 -0.5 Z M 121.50316091997641 0.5 L 198.67038433995282 0.5 L 198.67038433995282 3.5 L 205.67038433995282 0 L 198.67038433995282 -3.5 L 198.67038433995282 -0.5 L 121.50316091997641 -0.5 Z"/><text text-anchor="middle" pointer-events="none" font-size="8px" fill="#000000" x="111.83519216997641" y="3" font-family="sans-serif">trek</text></g><g class="relationship" transform="translate(268.79970470777096 93.59134113992702) rotate(354.96808090680247)"><path class="outline" fill="#A5ABB6" stroke="none" d="M 25 0.5 L 156.86203870134742 0.5 L 156.86203870134742 -0.5 L 25 -0.5 Z M 176.19797620134742 0.5 L 308.06001490269483 0.5 L 308.06001490269483 3.5 L 315.06001490269483 0 L 308.06001490269483 -3.5 L 308.06001490269483 -0.5 L 176.19797620134742 -0.5 Z"/><text text-anchor="middle" pointer-events="none" font-size="8px" fill="#000000" x="166.53000745134742" y="3" font-family="sans-serif">trek</text></g><g class="relationship" transform="translate(40.760122089682426 58.85267434182535) rotate(356.8819068228993)"><path class="outline" fill="#A5ABB6" stroke="none" d="M 24.018736134675446,-6.953439040707552 L 24.277555179777966,-5.987513214418485 A 205.39164761724325 205.39164761724325 0 0 1 65.53245744431261,-12.640788927451752 L 65.4744980872409,-13.639107870940165 A 206.39164761724325 206.39164761724325 0 0 0 24.018736134675446,-6.953439040707552 Z M 84.84909024811094,-13.852920427168556 L 84.81317665836262,-12.853565528210538 A 205.39164761724325 205.39164761724325 0 0 1 126.20486099852599,-7.1123543272341045 L 125.49254329316388,-4.19814714746331 L 133.12339736888487,-5.9359808780176335 L 127.15461793900882,-10.997963900261832 L 126.4423002336467,-8.083756720491037 A 206.39164761724325 206.39164761724325 0 0 0 84.84909024811094,-13.852920427168556"/><text text-anchor="middle" pointer-events="none" font-size="8px" fill="#000000" x="75.16480125305425" y="-10.473527566293797" font-family="sans-serif">trek</text></g><g class="relationship" transform="translate(197.93554287442979 50.29057767577127) rotate(368.4676301054376)"><path class="outline" fill="#A5ABB6" stroke="none" d="M 24.018736134675446,-6.953439040707552 L 24.277555179777966,-5.987513214418485 A 263.55967134501094 263.55967134501094 0 0 1 80.38359551935481,-14.689811785750464 L 80.33765441590874,-15.688755935848008 A 264.55967134501094 264.55967134501094 0 0 0 24.018736134675446,-6.953439040707552 Z M 99.70503127829883,-15.869738901648532 L 99.67776630024379,-14.87011066026497 A 263.55967134501094 263.55967134501094 0 0 1 155.93663579587778,-7.217832170556549 L 155.21446744029504,-4.306050436601384 L 162.85115456770362,-6.018069629856056 L 156.89952693665475,-11.100207815830103 L 156.177358581072,-8.188426081874937 A 264.55967134501094 264.55967134501094 0 0 0 99.70503127829883,-15.869738901648532"/><text text-anchor="middle" pointer-events="none" font-size="8px" fill="#000000" x="90.02435825042974" y="-12.456562616078827" font-family="sans-serif">trek</text></g><g class="relationship" transform="translate(383.0118333722392 77.84352726858145) rotate(356.41209849836093)"><path class="outline" fill="#A5ABB6" stroke="none" d="M 24.018736134675446,6.953439040707552 L 24.277555179777966,5.987513214418485 A 337.3971987602503 337.3971987602503 0 0 0 99.31372588159917,17.260181660035983 L 99.27730397250589,18.259518162190318 A 338.3971987602503 338.3971987602503 0 0 1 24.018736134675446,6.953439040707552 Z M 118.63861991245288,18.410884265852644 L 118.61782705732566,17.411100460634884 A 337.3971987602503 337.3971987602503 0 0 0 193.82107370790075,7.312998624625417 L 193.09001816244717,4.4034354633481865 L 200.73189700845654,6.0921295454465785 L 194.7958144351722,11.192416172995058 L 194.0647588897186,8.282853011717828 A 338.3971987602503 338.3971987602503 0 0 1 118.63861991245288,18.410884265852644"/><text text-anchor="middle" pointer-events="none" font-size="8px" fill="#000000" x="108.96078800419913" y="20.973718210245124" font-family="sans-serif">trek</text></g><g class="relationship" transform="translate(383.0118333722392 77.84352726858145) rotate(356.41209849836093)"><path class="outline" fill="#A5ABB6" stroke="none" d="M 24.018736134675446,-6.953439040707552 L 24.277555179777966,-5.987513214418485 A 337.3971987602503 337.3971987602503 0 0 1 85.79186678537758,-16.49535780906018 L 85.71536790129487,-17.492427476001353 A 338.3971987602503 338.3971987602503 0 0 0 24.018736134675446,-6.953439040707552 Z M 132.21089170226466,-17.855927885649237 L 132.1499913289915,-16.85778403602876 A 337.3971987602503 337.3971987602503 0 0 1 193.82107370790075,-7.312998624625417 L 193.09001816244717,-4.4034354633481865 L 200.73189700845654,-6.0921295454465785 L 194.7958144351722,-11.192416172995058 L 194.0647588897186,-8.282853011717828 A 338.3971987602503 338.3971987602503 0 0 0 132.21089170226466,-17.855927885649237"/><text text-anchor="middle" pointer-events="none" font-size="8px" fill="#000000" x="108.96078800419906" y="-14.973718210245124" font-family="sans-serif">twowheeler</text></g><g class="relationship" transform="translate(197.93554287442979 50.29057767577127) rotate(368.4676301054376)"><path class="outline" fill="#A5ABB6" stroke="none" d="M 24.018736134675446,6.953439040707552 L 24.277555179777966,5.987513214418485 A 263.55967134501094 263.55967134501094 0 0 0 66.88104079755703,13.720807075346329 L 66.78386820390273,14.71607462080459 A 264.55967134501094 264.55967134501094 0 0 1 24.018736134675446,6.953439040707552 Z M 113.27462786145517,15.150518357038266 L 113.19607163211391,14.153608672647692 A 263.55967134501094 263.55967134501094 0 0 0 155.93663579587778,7.217832170556549 L 155.21446744029504,4.306050436601384 L 162.85115456770362,6.018069629856056 L 156.89952693665475,11.100207815830103 L 156.177358581072,8.188426081874937 A 264.55967134501094 264.55967134501094 0 0 1 113.27462786145517,15.150518357038266"/><text text-anchor="middle" pointer-events="none" font-size="8px" fill="#000000" x="90.02435825042971" y="18.456562616078827" font-family="sans-serif">twowheeler</text></g><g class="relationship" transform="translate(197.93554287442979 50.29057767577127) rotate(336.36757618368233)"><path class="outline" fill="#A5ABB6" stroke="none" d="M 24.018736134675446,-6.953439040707552 L 24.277555179777966,-5.987513214418485 A 125.5925372395569 125.5925372395569 0 0 1 31.968614880762093,-7.79111843308759 L 31.77103402600136,-8.771405026810072 A 126.5925372395569 126.5925372395569 0 0 0 24.018736134675446,-6.953439040707552 Z M 78.15166508835112,-9.450490400203492 L 77.98286865047112,-8.464839466779779 A 125.5925372395569 125.5925372395569 0 0 1 85.72343541978883,-6.887177526233926 L 85.03214897118882,-3.9679099732367726 L 92.65027411821552,-5.760720405000093 L 86.64515068458884,-10.779534263563463 L 85.95386423598883,-7.86026671056631 A 126.5925372395569 126.5925372395569 0 0 0 78.15166508835112,-9.450490400203492"/><text text-anchor="middle" pointer-events="none" font-size="8px" fill="#000000" x="54.937300569035365" y="-7.753461733225677" font-family="sans-serif">twowheeler</text></g><g class="relationship" transform="translate(305.1028480809491 3.3980934926749473) rotate(403.69768983961933)"><path class="outline" fill="#A5ABB6" stroke="none" d="M 21.40063509461097,12.933012701892217 L 21.90063509461097,12.06698729810778 A 60.2546893715694 60.2546893715694 0 0 0 39.355770400421875,18.791963947573507 L 39.14545964266775,19.769598534304606 A 61.2546893715694 61.2546893715694 0 0 1 21.40063509461097,12.933012701892217 Z M 61.206721132838254,20.447984010523413 L 61.05687560351454,19.459274590450107 A 60.2546893715694 60.2546893715694 0 0 0 78.89222847275977,13.819483148425784 L 77.5546936365895,11.134152524083413 L 85.38092240225367,11.146123634752223 L 80.67560825432012,17.399923980882278 L 79.33807341814986,14.714593356539906 A 61.2546893715694 61.2546893715694 0 0 1 61.206721132838254,20.447984010523413"/><text text-anchor="middle" pointer-events="none" font-size="8px" fill="#000000" x="50.16065107458213" y="23.61088151023847" font-family="sans-serif">road</text></g><g class="relationship" transform="translate(305.1028480809491 3.3980934926749473) rotate(403.69768983961933)"><path class="outline" fill="#A5ABB6" stroke="none" d="M 25 0.5 L 40.711370052553384 0.5 L 40.711370052553384 -0.5 L 25 -0.5 Z M 60.047307552553384 0.5 L 75.75867760510677 0.5 L 75.75867760510677 3.5 L 82.75867760510677 0 L 75.75867760510677 -3.5 L 75.75867760510677 -0.5 L 60.047307552553384 -0.5 Z"/><text text-anchor="middle" pointer-events="none" font-size="8px" fill="#000000" x="50.379338802553384" y="3" font-family="sans-serif">trek</text></g><g class="relationship" transform="translate(305.1028480809491 3.3980934926749473) rotate(371.1761114346441)"><path class="outline" fill="#A5ABB6" stroke="none" d="M 25 0.5 L 59.81155733587279 0.5 L 59.81155733587279 -0.5 L 25 -0.5 Z M 79.14749483587279 0.5 L 113.95905217174558 0.5 L 113.95905217174558 3.5 L 120.95905217174558 0 L 113.95905217174558 -3.5 L 113.95905217174558 -0.5 L 79.14749483587279 -0.5 Z"/><text text-anchor="middle" pointer-events="none" font-size="8px" fill="#000000" x="69.47952608587279" y="3" font-family="sans-serif">trek</text></g><g class="relationship" transform="translate(448.2939405250736 31.68865650461496) rotate(371.3876586981352)"><path class="outline" fill="#A5ABB6" stroke="none" d="M 25 0.5 L 68.05867326692682 0.5 L 68.05867326692682 -0.5 L 25 -0.5 Z M 87.39461076692682 0.5 L 130.45328403385363 0.5 L 130.45328403385363 3.5 L 137.45328403385363 0 L 130.45328403385363 -3.5 L 130.45328403385363 -0.5 L 87.39461076692682 -0.5 Z"/><text text-anchor="middle" pointer-events="none" font-size="8px" fill="#000000" x="77.72664201692682" y="3" font-family="sans-serif">trek</text></g><g class="relationship" transform="translate(305.1028480809491 3.3980934926749473) rotate(403.69768983961933)"><path class="outline" fill="#A5ABB6" stroke="none" d="M 21.40063509461097,-12.933012701892217 L 21.90063509461097,-12.06698729810778 A 60.2546893715694 60.2546893715694 0 0 1 27.83663234647544,-15.070095619283542 L 27.435147454822598,-15.985961265420848 A 61.2546893715694 61.2546893715694 0 0 0 21.40063509461097,-12.933012701892217 Z M 73.12738291697714,-17.391000996594272 L 72.78292923754383,-16.452197682409214 A 60.2546893715694 60.2546893715694 0 0 1 78.89222847275977,-13.819483148425784 L 77.5546936365895,-11.134152524083413 L 85.38092240225367,-11.146123634752223 L 80.67560825432012,-17.399923980882278 L 79.33807341814986,-14.714593356539906 A 61.2546893715694 61.2546893715694 0 0 0 73.12738291697714,-17.391000996594272"/><text text-anchor="middle" pointer-events="none" font-size="8px" fill="#000000" x="50.16065107458212" y="-17.61088151023847" font-family="sans-serif">twowheeler</text></g><g class="relationship" transform="translate(197.93554287442979 50.29057767577127) rotate(336.36757618368233)"><path class="outline" fill="#A5ABB6" stroke="none" d="M 24.018736134675446,6.953439040707552 L 24.277555179777966,5.987513214418485 A 125.5925372395569 125.5925372395569 0 0 0 45.33085402138676,9.743726657628017 L 45.239666742504966,10.739560418940684 A 126.5925372395569 126.5925372395569 0 0 1 24.018736134675446,6.953439040707552 Z M 64.63118440064414,11.023482731076541 L 64.56919110442266,10.025406165264272 A 125.5925372395569 125.5925372395569 0 0 0 85.72343541978883,6.887177526233926 L 85.03214897118882,3.9679099732367726 L 92.65027411821552,5.760720405000093 L 86.64515068458884,10.779534263563463 L 85.95386423598883,7.86026671056631 A 126.5925372395569 126.5925372395569 0 0 1 64.63118440064414,11.023482731076541"/><text text-anchor="middle" pointer-events="none" font-size="8px" fill="#000000" x="54.93730056903539" y="13.753461733225677" font-family="sans-serif">trek</text></g><g class="relationship" transform="translate(40.760122089682426 58.85267434182535) rotate(356.8819068228993)"><path class="outline" fill="#A5ABB6" stroke="none" d="M 24.018736134675446,6.953439040707552 L 24.277555179777966,5.987513214418485 A 205.39164761724325 205.39164761724325 0 0 0 52.05928773271985,11.412250380136243 L 51.935730918945815,12.404587880067595 A 206.39164761724325 206.39164761724325 0 0 1 24.018736134675446,6.953439040707552 Z M 98.41180443732632,12.917484771001568 L 98.31017736379223,11.922662204950257 A 205.39164761724325 205.39164761724325 0 0 0 126.20486099852599,7.1123543272341045 L 125.49254329316388,4.19814714746331 L 133.12339736888487,5.9359808780176335 L 127.15461793900882,10.997963900261832 L 126.4423002336467,8.083756720491037 A 206.39164761724325 206.39164761724325 0 0 1 98.41180443732632,12.917484771001568"/><text text-anchor="middle" pointer-events="none" font-size="8px" fill="#000000" x="75.16480125305432" y="16.473527566293797" font-family="sans-serif">twowheeler</text></g><g class="relationship" transform="translate(40.760122089682426 58.85267434182535) rotate(527.1832976069628)"><path class="outline" fill="#A5ABB6" stroke="none" d="M 25 0.5 L 44.06545380224747 0.5 L 44.06545380224747 -0.5 L 25 -0.5 Z M 63.40139130224747 0.5 L 82.46684510449494 0.5 L 82.46684510449494 3.5 L 89.46684510449494 0 L 82.46684510449494 -3.5 L 82.46684510449494 -0.5 L 63.40139130224747 -0.5 Z"/><text text-anchor="middle" pointer-events="none" font-size="8px" fill="#000000" x="53.73342255224747" y="3" transform="rotate(180 53.73342255224747 0)" font-family="sans-serif">trek</text></g><g class="relationship" transform="translate(-70.85475053504004 84.24517002742928) rotate(371.1818818833648)"><path class="outline" fill="#A5ABB6" stroke="none" d="M 21.40063509461097,-12.933012701892217 L 21.90063509461097,-12.06698729810778 A 121.45915454446946 121.45915454446946 0 0 1 70.57476777195244,-27.73966529366183 L 70.47551263848715,-28.734727311066166 A 122.45915454446946 122.45915454446946 0 0 0 21.40063509461097,-12.933012701892217 Z M 89.86645832433787,-29.125442663720534 L 89.80736722588622,-28.127190069391943 A 121.45915454446946 121.45915454446946 0 0 1 139.07332570368104,-14.427943275937773 L 137.67919991180003,-11.771552251180282 L 145.50392572676202,-11.617714932341677 L 140.93216009285572,-17.96979797561443 L 139.53803430097472,-15.313406950856939 A 122.45915454446946 122.45915454446946 0 0 0 89.86645832433787,-29.125442663720534"/><text text-anchor="middle" pointer-events="none" font-size="8px" fill="#000000" x="80.17331084976836" y="-25.814678487030434" font-family="sans-serif">trek</text></g><g class="relationship" transform="translate(93.60336786578883 116.75471375181955) rotate(352.46839022330755)"><path class="outline" fill="#A5ABB6" stroke="none" d="M 21.40063509461097,12.933012701892217 L 21.90063509461097,12.06698729810778 A 130.6618947466583 130.6618947466583 0 0 0 75.11623949024825,29.009464843872095 L 75.02351664246478,30.005156801004873 A 131.6618947466583 131.6618947466583 0 0 1 21.40063509461097,12.933012701892217 Z M 94.41203887697564,30.376415485086383 L 94.35750178845164,29.37790373954941 A 130.6618947466583 130.6618947466583 0 0 0 148.18270038591666,14.485083572598308 L 146.7832613673071,11.831487817176411 L 154.60766365166936,11.66199182174631 L 150.0486190773961,18.02321124649417 L 148.64918005878653,15.369615491072272 A 131.6618947466583 131.6618947466583 0 0 1 94.41203887697564,30.376415485086383"/><text text-anchor="middle" pointer-events="none" font-size="8px" fill="#000000" x="84.72050570552946" y="33.04832257183561" font-family="sans-serif">trek</text></g><g class="relationship" transform="translate(93.60336786578883 116.75471375181955) rotate(352.46839022330755)"><path class="outline" fill="#A5ABB6" stroke="none" d="M 25 0.5 L 61.6280589317592 0.5 L 61.6280589317592 -0.5 L 25 -0.5 Z M 108.0929026817592 0.5 L 144.7209616135184 0.5 L 144.7209616135184 3.5 L 151.7209616135184 0 L 144.7209616135184 -3.5 L 144.7209616135184 -0.5 L 108.0929026817592 -0.5 Z"/><text text-anchor="middle" pointer-events="none" font-size="8px" fill="#000000" x="84.8604808067592" y="3" font-family="sans-serif">twowheeler</text></g><g class="relationship" transform="translate(93.60336786578883 116.75471375181955) rotate(352.46839022330755)"><path class="outline" fill="#A5ABB6" stroke="none" d="M 21.40063509461097,-12.933012701892217 L 21.90063509461097,-12.06698729810778 A 130.6618947466583 130.6618947466583 0 0 1 73.78984401751873,-28.87911876972744 L 73.68696981324914,-29.87381314394291 A 131.6618947466583 131.6618947466583 0 0 0 21.40063509461097,-12.933012701892217 Z M 95.75263413967502,-30.296334747298104 L 95.68791494595439,-29.298431231939944 A 130.6618947466583 130.6618947466583 0 0 1 148.18270038591666,-14.485083572598308 L 146.7832613673071,-11.831487817176411 L 154.60766365166936,-11.66199182174631 L 150.0486190773961,-18.02321124649417 L 148.64918005878653,-15.369615491072272 A 131.6618947466583 131.6618947466583 0 0 0 95.75263413967502,-30.296334747298104"/><text text-anchor="middle" pointer-events="none" font-size="8px" fill="#000000" x="84.72050570552943" y="-27.048322571835612" font-family="sans-serif">road</text></g><g class="relationship" transform="translate(-70.85475053504004 84.24517002742928) rotate(371.1818818833648)"><path class="outline" fill="#A5ABB6" stroke="none" d="M 25 0.5 L 69.31439942487053 0.5 L 69.31439942487053 -0.5 L 25 -0.5 Z M 91.32611817487053 0.5 L 135.64051759974106 0.5 L 135.64051759974106 3.5 L 142.64051759974106 0 L 135.64051759974106 -3.5 L 135.64051759974106 -0.5 L 91.32611817487053 -0.5 Z"/><text text-anchor="middle" pointer-events="none" font-size="8px" fill="#000000" x="80.32025879987053" y="3" font-family="sans-serif">road</text></g><g class="relationship" transform="translate(-70.85475053504004 84.24517002742928) rotate(371.1818818833648)"><path class="outline" fill="#A5ABB6" stroke="none" d="M 21.40063509461097,12.933012701892217 L 21.90063509461097,12.06698729810778 A 121.45915454446946 121.45915454446946 0 0 0 57.234815304743364,25.65485047393068 L 57.02572940127773,26.632747751241524 A 122.45915454446946 122.45915454446946 0 0 1 21.40063509461097,12.933012701892217 Z M 103.38999760043959,27.566958577958218 L 103.22047344105096,26.581432546143958 A 121.45915454446946 121.45915454446946 0 0 0 139.07332570368104,14.427943275937773 L 137.67919991180003,11.771552251180282 L 145.50392572676202,11.617714932341677 L 140.93216009285572,17.96979797561443 L 139.53803430097472,15.313406950856939 A 122.45915454446946 122.45915454446946 0 0 1 103.38999760043959,27.566958577958218"/><text text-anchor="middle" pointer-events="none" font-size="8px" fill="#000000" x="80.17331084976836" y="31.814678487030434" font-family="sans-serif">twowheeler</text></g><g class="relationship" transform="translate(-252.24160742753975 45.92496528379937) rotate(362.52634372916515)"><path class="outline" fill="#A5ABB6" stroke="none" d="M 25 0.5 L 132.13753389722726 0.5 L 132.13753389722726 -0.5 L 25 -0.5 Z M 154.14925264722726 0.5 L 261.2867865444545 0.5 L 261.2867865444545 3.5 L 268.2867865444545 0 L 261.2867865444545 -3.5 L 261.2867865444545 -0.5 L 154.14925264722726 -0.5 Z"/><text text-anchor="middle" pointer-events="none" font-size="8px" fill="#000000" x="143.14339327222726" y="3" font-family="sans-serif">road</text></g><g class="relationship" transform="translate(-252.24160742753975 45.92496528379937) rotate(362.52634372916515)"><path class="outline" fill="#A5ABB6" stroke="none" d="M 21.40063509461097,-12.933012701892217 L 21.90063509461097,-12.06698729810778 A 248.12507320434585 248.12507320434585 0 0 1 133.41903947168578,-44.99215234438435 L 133.36848378997615,-45.99087358829922 A 249.12507320434585 249.12507320434585 0 0 0 21.40063509461097,-12.933012701892217 Z M 152.73710077815198,-46.21733222863915 L 152.70990990172095,-45.21770196887363 A 248.12507320434585 248.12507320434585 0 0 1 264.96764791014044,-14.908936481536868 L 263.52880328218924,-12.276499181881663 L 271.3498090473278,-11.990371899593283 L 266.8861074140754,-18.418852881077143 L 265.4472627861242,-15.786415581421936 A 249.12507320434585 249.12507320434585 0 0 0 152.73710077815198,-46.21733222863915"/><text text-anchor="middle" pointer-events="none" font-size="8px" fill="#000000" x="143.05643612428148" y="-42.792451538348985" font-family="sans-serif">trek</text></g><g class="relationship" transform="translate(-252.24160742753975 45.92496528379937) rotate(371.9290312255001)"><path class="outline" fill="#A5ABB6" stroke="none" d="M 24.018736134675446,-6.953439040707552 L 24.277555179777966,-5.987513214418485 A 260.18787597439825 260.18787597439825 0 0 1 79.52092362041499,-14.571776792554033 L 79.47442564613006,-15.570695176801394 A 261.18787597439825 261.18787597439825 0 0 0 24.018736134675446,-6.953439040707552 Z M 98.84214801700881,-15.753306625519315 L 98.81449353571507,-14.753689083824327 A 260.18787597439825 260.18787597439825 0 0 1 154.20990226361954,-7.212599658861801 L 153.48822256302824,-4.300696774190939 L 161.1246222779501,-6.013997504927296 L 155.1721418644079,-11.095136838422949 L 154.4504621638166,-8.183233953752088 A 261.18787597439825 261.18787597439825 0 0 0 98.84214801700881,-15.753306625519315"/><text text-anchor="middle" pointer-events="none" font-size="8px" fill="#000000" x="89.16130765301602" y="-12.34161337058407" font-family="sans-serif">trek</text></g><g class="relationship" transform="translate(-252.24160742753975 45.92496528379937) rotate(371.9290312255001)"><path class="outline" fill="#A5ABB6" stroke="none" d="M 24.018736134675446,6.953439040707552 L 24.277555179777966,5.987513214418485 A 260.18787597439825 260.18787597439825 0 0 0 78.18720856367844,14.506264345993316 L 78.13558462012325,15.504930941235102 A 261.18787597439825 261.18787597439825 0 0 1 24.018736134675446,6.953439040707552 Z M 100.18199104530831,15.712798760653072 L 100.14920675841658,14.713336309866179 A 260.18787597439825 260.18787597439825 0 0 0 154.20990226361954,7.212599658861801 L 153.48822256302824,4.300696774190939 L 161.1246222779501,6.013997504927296 L 155.1721418644079,11.095136838422949 L 154.4504621638166,8.183233953752088 A 261.18787597439825 261.18787597439825 0 0 1 100.18199104530831,15.712798760653072"/><text text-anchor="middle" pointer-events="none" font-size="8px" fill="#000000" x="89.16130765301607" y="18.34161337058407" font-family="sans-serif">road</text></g></g><g class="layer nodes"><g class="node" transform="translate(-252.24160742753975,45.92496528379937)"><circle class="outline" cx="0" cy="0" r="25" fill="#DE9BF9" stroke="#BF85D6" stroke-width="2px"/><text text-anchor="middle" pointer-events="none" font-family="sans-serif" dy="1.5625" font-size="25" fill="#FFFFFF"/><text text-anchor="middle" pointer-events="none" y="5" font-size="10px" fill="#FFFFFF" font-family="sans-serif"> Darjeeling</text></g><g class="node" transform="translate(40.760122089682426,58.85267434182535)"><circle class="outline" cx="0" cy="0" r="25" fill="#DE9BF9" stroke="#BF85D6" stroke-width="2px"/><text text-anchor="middle" pointer-events="none" font-family="sans-serif" dy="1.5625" font-size="25" fill="#FFFFFF"/><text text-anchor="middle" pointer-events="none" y="5" font-size="10px" fill="#FFFFFF" font-family="sans-serif"> Rimbik</text></g><g class="node" transform="translate(268.79970470777096,93.59134113992702)"><circle class="outline" cx="0" cy="0" r="25" fill="#FB95AF" stroke="#E0849B" stroke-width="2px"/><text text-anchor="middle" pointer-events="none" font-family="sans-serif" dy="1.5625" font-size="25" fill="#FFFFFF"/><text text-anchor="middle" pointer-events="none" y="5" font-size="10px" fill="#FFFFFF" font-family="sans-serif"> BhikeBh…</text></g><g class="node" transform="translate(607.5491247867866,63.76443832130285)"><circle class="outline" cx="0" cy="0" r="25" fill="#FFD86E" stroke="#EDBA39" stroke-width="2px"/><text text-anchor="middle" pointer-events="none" font-family="sans-serif" dy="1.5625" font-size="25" fill="#604A0E"/><text text-anchor="middle" pointer-events="none" y="5" font-size="10px" fill="#604A0E" font-family="sans-serif"> Sandak…</text></g><g class="node" transform="translate(197.93554287442979,50.29057767577127)"><circle class="outline" cx="0" cy="0" r="25" fill="#FB95AF" stroke="#E0849B" stroke-width="2px"/><text text-anchor="middle" pointer-events="none" font-family="sans-serif" dy="1.5625" font-size="25" fill="#FFFFFF"/><text text-anchor="middle" pointer-events="none" y="5" font-size="10px" fill="#FFFFFF" font-family="sans-serif"> Sirikhola</text></g><g class="node" transform="translate(383.0118333722392,77.84352726858145)"><circle class="outline" cx="0" cy="0" r="25" fill="#FB95AF" stroke="#E0849B" stroke-width="2px"/><text text-anchor="middle" pointer-events="none" font-family="sans-serif" dy="1.5625" font-size="25" fill="#FFFFFF"/><text text-anchor="middle" pointer-events="none" y="5" font-size="10px" fill="#FFFFFF" font-family="sans-serif"> Gurdum</text></g><g class="node" transform="translate(305.1028480809491,3.3980934926749473)"><circle class="outline" cx="0" cy="0" r="25" fill="#FB95AF" stroke="#E0849B" stroke-width="2px"/><text text-anchor="middle" pointer-events="none" font-family="sans-serif" dy="1.5625" font-size="25" fill="#FFFFFF"/><text text-anchor="middle" pointer-events="none" y="5" font-size="10px" fill="#FFFFFF" font-family="sans-serif"> Rammam</text></g><g class="node" transform="translate(448.2939405250736,31.68865650461496)"><circle class="outline" cx="0" cy="0" r="25" fill="#FFD86E" stroke="#EDBA39" stroke-width="2px"/><text text-anchor="middle" pointer-events="none" font-family="sans-serif" dy="1.5625" font-size="25" fill="#604A0E"/><text text-anchor="middle" pointer-events="none" y="5" font-size="10px" fill="#604A0E" font-family="sans-serif"> Sabargr…</text></g><g class="node" transform="translate(-70.85475053504004,84.24517002742928)"><circle class="outline" cx="0" cy="0" r="25" fill="#FB95AF" stroke="#E0849B" stroke-width="2px"/><text text-anchor="middle" pointer-events="none" font-family="sans-serif" dy="1.5625" font-size="25" fill="#FFFFFF"/><text text-anchor="middle" pointer-events="none" y="5" font-size="10px" fill="#FFFFFF" font-family="sans-serif"> Tumbling</text></g><g class="node" transform="translate(93.60336786578883,116.75471375181955)"><circle class="outline" cx="0" cy="0" r="25" fill="#FB95AF" stroke="#E0849B" stroke-width="2px"/><text text-anchor="middle" pointer-events="none" font-family="sans-serif" dy="1.5625" font-size="25" fill="#FFFFFF"/><text text-anchor="middle" pointer-events="none" y="5" font-size="10px" fill="#FFFFFF" font-family="sans-serif"> Gairibus</text></g></g></svg>