<svg xmlns="http://www.w3.org/2000/svg" width="394.95428466796875" height="310.53411865234375" viewBox="-50.11207580566406 -18.54729461669922 394.95428466796875 310.53411865234375"><title>Neo4j Graph Visualization</title><desc>Created using Neo4j (http://www.neo4j.com/)</desc><g class="layer relationships"><g class="relationship" transform="translate(112.8960633535216 10.452706032025858) rotate(388.47588742101595)"><path class="outline" fill="#A5ABB6" stroke="none" d="M 25 0.5 L 89.15788915851522 0.5 L 89.15788915851522 -0.5 L 25 -0.5 Z M 134.72038915851522 0.5 L 198.87827831703044 0.5 L 198.87827831703044 3.5 L 205.87827831703044 0 L 198.87827831703044 -3.5 L 198.87827831703044 -0.5 L 134.72038915851522 -0.5 Z"/><text text-anchor="middle" pointer-events="none" font-size="8px" fill="#000000" x="111.93913915851522" y="3" font-family="sans-serif">ACTED_IN</text></g><g class="relationship" transform="translate(116.5896025517849 262.98682607375025) rotate(324.4374533837894)"><path class="outline" fill="#A5ABB6" stroke="none" d="M 25 0.5 L 96.18784256437195 0.5 L 96.18784256437195 -0.5 L 25 -0.5 Z M 141.75034256437195 0.5 L 212.9381851287439 0.5 L 212.9381851287439 3.5 L 219.9381851287439 0 L 212.9381851287439 -3.5 L 212.9381851287439 -0.5 L 141.75034256437195 -0.5 Z"/><text text-anchor="middle" pointer-events="none" font-size="8px" fill="#000000" x="118.96909256437195" y="3" font-family="sans-serif">ACTED_IN</text></g><g class="relationship" transform="translate(112.8960633535216 10.452706032025858) rotate(449.7018224136098)"><path class="outline" fill="#A5ABB6" stroke="none" d="M 25 0.5 L 34.50385176416056 0.5 L 34.50385176416056 -0.5 L 25 -0.5 Z M 80.06635176416056 0.5 L 89.57020352832112 0.5 L 89.57020352832112 3.5 L 96.57020352832112 0 L 89.57020352832112 -3.5 L 89.57020352832112 -0.5 L 80.06635176416056 -0.5 Z"/><text text-anchor="middle" pointer-events="none" font-size="8px" fill="#000000" x="57.28510176416056" y="3" font-family="sans-serif">ACTED_IN</text></g><g class="relationship" transform="translate(116.5896025517849 262.98682607375025) rotate(268.6611523183628)"><path class="outline" fill="#A5ABB6" stroke="none" d="M 25 0.5 L 39.21941326484293 0.5 L 39.21941326484293 -0.5 L 25 -0.5 Z M 84.78191326484293 0.5 L 99.00132652968585 0.5 L 99.00132652968585 3.5 L 106.00132652968585 0 L 99.00132652968585 -3.5 L 99.00132652968585 -0.5 L 84.78191326484293 -0.5 Z"/><text text-anchor="middle" pointer-events="none" font-size="8px" fill="#000000" x="62.00066326484293" y="3" transform="rotate(180 62.00066326484293 0)" font-family="sans-serif">ACTED_IN</text></g><g class="relationship" transform="translate(112.8960633535216 10.452706032025858) rotate(498.1860148588112)"><path class="outline" fill="#A5ABB6" stroke="none" d="M 25 0.5 L 63.619293460455 0.5 L 63.619293460455 -0.5 L 25 -0.5 Z M 109.181793460455 0.5 L 147.80108692091 0.5 L 147.80108692091 3.5 L 154.80108692091 0 L 147.80108692091 -3.5 L 147.80108692091 -0.5 L 109.181793460455 -0.5 Z"/><text text-anchor="middle" pointer-events="none" font-size="8px" fill="#000000" x="86.400543460455" y="3" transform="rotate(180 86.400543460455 0)" font-family="sans-serif">ACTED_IN</text></g><g class="relationship" transform="translate(116.5896025517849 262.98682607375025) rotate(223.93127726830687)"><path class="outline" fill="#A5ABB6" stroke="none" d="M 25 0.5 L 69.32201272671585 0.5 L 69.32201272671585 -0.5 L 25 -0.5 Z M 114.88451272671585 0.5 L 159.2065254534317 0.5 L 159.2065254534317 3.5 L 166.2065254534317 0 L 159.2065254534317 -3.5 L 159.2065254534317 -0.5 L 114.88451272671585 -0.5 Z"/><text text-anchor="middle" pointer-events="none" font-size="8px" fill="#000000" x="92.10326272671585" y="3" transform="rotate(180 92.10326272671585 0)" font-family="sans-serif">ACTED_IN</text></g></g><g class="layer nodes"><g class="node" transform="translate(116.5896025517849,262.98682607375025)"><circle class="outline" cx="0" cy="0" r="25" fill="#6DCE9E" stroke="#60B58B" stroke-width="2px"/><text text-anchor="middle" pointer-events="none" font-family="sans-serif" dy="1.5625" font-size="25" fill="#FFFFFF"/><text text-anchor="middle" pointer-events="none" font-family="sans-serif" dy="1.5625" font-size="25" fill="#FFFFFF"/><text text-anchor="middle" pointer-events="none" y="0" font-size="10px" fill="#FFFFFF" font-family="sans-serif"> Keanu</text><text text-anchor="middle" pointer-events="none" y="10" font-size="10px" fill="#FFFFFF" font-family="sans-serif"> Reeves</text></g><g class="node" transform="translate(315.8421898285549,120.53290019707964)"><circle class="outline" cx="0" cy="0" r="25" fill="#68BDF6" stroke="#5CA8DB" stroke-width="2px"/><text text-anchor="middle" pointer-events="none" font-family="sans-serif" dy="1.5625" font-size="25" fill="#FFFFFF"/><text text-anchor="middle" pointer-events="none" font-family="sans-serif" dy="1.5625" font-size="25" fill="#FFFFFF"/><text text-anchor="middle" pointer-events="none" font-family="sans-serif" dy="1.5625" font-size="25" fill="#FFFFFF"/><text text-anchor="middle" pointer-events="none" y="-5" font-size="10px" fill="#FFFFFF" font-family="sans-serif"> The</text><text text-anchor="middle" pointer-events="none" y="5" font-size="10px" fill="#FFFFFF" font-family="sans-serif"> Matrix</text><text text-anchor="middle" pointer-events="none" y="15" font-size="10px" fill="#FFFFFF" font-family="sans-serif"> Revol…</text></g><g class="node" transform="translate(112.8960633535216,10.452706032025858)"><circle class="outline" cx="0" cy="0" r="25" fill="#6DCE9E" stroke="#60B58B" stroke-width="2px"/><text text-anchor="middle" pointer-events="none" font-family="sans-serif" dy="1.5625" font-size="25" fill="#FFFFFF"/><text text-anchor="middle" pointer-events="none" font-family="sans-serif" dy="1.5625" font-size="25" fill="#FFFFFF"/><text text-anchor="middle" pointer-events="none" y="0" font-size="10px" fill="#FFFFFF" font-family="sans-serif"> Hugo</text><text text-anchor="middle" pointer-events="none" y="10" font-size="10px" fill="#FFFFFF" font-family="sans-serif"> Weaving</text></g><g class="node" transform="translate(113.52873379707036,132.02126329099508)"><circle class="outline" cx="0" cy="0" r="25" fill="#68BDF6" stroke="#5CA8DB" stroke-width="2px"/><text text-anchor="middle" pointer-events="none" font-family="sans-serif" dy="1.5625" font-size="25" fill="#FFFFFF"/><text text-anchor="middle" pointer-events="none" font-family="sans-serif" dy="1.5625" font-size="25" fill="#FFFFFF"/><text text-anchor="middle" pointer-events="none" font-family="sans-serif" dy="1.5625" font-size="25" fill="#FFFFFF"/><text text-anchor="middle" pointer-events="none" y="-5" font-size="10px" fill="#FFFFFF" font-family="sans-serif"> The</text><text text-anchor="middle" pointer-events="none" y="5" font-size="10px" fill="#FFFFFF" font-family="sans-serif"> Matrix</text><text text-anchor="middle" pointer-events="none" y="15" font-size="10px" fill="#FFFFFF" font-family="sans-serif"> Reloa…</text></g><g class="node" transform="translate(-21.11207551664375,130.32868183408186)"><circle class="outline" cx="0" cy="0" r="25" fill="#68BDF6" stroke="#5CA8DB" stroke-width="2px"/><text text-anchor="middle" pointer-events="none" font-family="sans-serif" dy="1.5625" font-size="25" fill="#FFFFFF"/><text text-anchor="middle" pointer-events="none" font-family="sans-serif" dy="1.5625" font-size="25" fill="#FFFFFF"/><text text-anchor="middle" pointer-events="none" y="0" font-size="10px" fill="#FFFFFF" font-family="sans-serif"> The</text><text text-anchor="middle" pointer-events="none" y="10" font-size="10px" fill="#FFFFFF" font-family="sans-serif"> Matrix</text></g></g></svg>